<?xml version="1.0" encoding="utf-8" standalone="no"?>
<!DOCTYPE svg PUBLIC "-//W3C//DTD SVG 1.1//EN"
  "http://www.w3.org/Graphics/SVG/1.1/DTD/svg11.dtd">
<svg xmlns:xlink="http://www.w3.org/1999/xlink" width="927.9pt" height="640.8pt" viewBox="0 0 927.9 640.8" xmlns="http://www.w3.org/2000/svg" version="1.1">
 <metadata>
  <rdf:RDF xmlns:dc="http://purl.org/dc/elements/1.1/" xmlns:cc="http://creativecommons.org/ns#" xmlns:rdf="http://www.w3.org/1999/02/22-rdf-syntax-ns#">
   <cc:Work>
    <dc:type rdf:resource="http://purl.org/dc/dcmitype/StillImage"/>
    <dc:date>2026-03-25T19:48:17.890750</dc:date>
    <dc:format>image/svg+xml</dc:format>
    <dc:creator>
     <cc:Agent>
      <dc:title>Matplotlib v3.10.8, https://matplotlib.org/</dc:title>
     </cc:Agent>
    </dc:creator>
   </cc:Work>
  </rdf:RDF>
 </metadata>
 <defs>
  <style type="text/css">*{stroke-linejoin: round; stroke-linecap: butt}</style>
 </defs>
 <g id="figure_1">
  <g id="patch_1">
   <path d="M 0 640.8 
L 927.9 640.8 
L 927.9 0 
L 0 0 
z
" style="fill: #ffffff"/>
  </g>
  <g id="axes_1">
   <g id="line2d_1">
    <path d="M 849.800649 466.153247 
L 849.800649 479.711688 
" clip-path="url(#p9cb1b41b40)" style="fill: none; stroke: #757575; stroke-width: 1.9; stroke-linecap: round"/>
   </g>
   <g id="line2d_2">
    <path d="M 849.800649 463.893506 
L 846.411039 287.633766 
L 829.462987 265.036364 
L 822.683766 250.348052 
L 819.294156 206.283117 
" clip-path="url(#p9cb1b41b40)" style="fill: none; stroke: #757575; stroke-width: 1.9; stroke-linecap: round"/>
   </g>
   <g id="line2d_3">
    <path d="M 356.047403 286.503896 
L 347.008442 309.101299 
" clip-path="url(#p9cb1b41b40)" style="fill: none; stroke: #757575; stroke-width: 1.9; stroke-linecap: round"/>
   </g>
   <g id="line2d_4">
    <path d="M 357.177273 285.374026 
L 359.437013 284.244156 
" clip-path="url(#p9cb1b41b40)" style="fill: none; stroke: #000000; stroke-width: 4.8; stroke-linecap: round"/>
   </g>
   <g id="line2d_5">
    <path d="M 354.917532 285.374026 
L 332.32013 280.854545 
L 263.398052 284.244156 
" clip-path="url(#p9cb1b41b40)" style="fill: none; stroke: #757575; stroke-width: 1.9; stroke-linecap: round"/>
   </g>
   <g id="line2d_6">
    <path d="M 412.540909 378.023377 
L 409.151299 371.244156 
" clip-path="url(#p9cb1b41b40)" style="fill: none; stroke: #757575; stroke-width: 1.9; stroke-linecap: round"/>
   </g>
   <g id="line2d_7">
    <path d="M 414.800649 378.023377 
L 418.19026 373.503896 
" clip-path="url(#p9cb1b41b40)" style="fill: none; stroke: #757575; stroke-width: 1.9; stroke-linecap: round"/>
   </g>
   <g id="line2d_8">
    <path d="M 413.670779 379.153247 
L 417.06039 413.049351 
L 417.06039 483.101299 
" clip-path="url(#p9cb1b41b40)" style="fill: none; stroke: #b0b0b0; stroke-width: 1.1; stroke-linecap: round"/>
   </g>
   <g id="line2d_9">
    <path d="M 420.45 373.503896 
L 429.488961 379.153247 
L 480.333117 436.776623 
" clip-path="url(#p9cb1b41b40)" style="fill: none; stroke: #757575; stroke-width: 1.9; stroke-linecap: round"/>
   </g>
   <g id="line2d_10">
    <path d="M 419.32013 368.984416 
L 419.32013 320.4 
L 422.70974 295.542857 
" clip-path="url(#p9cb1b41b40)" style="fill: none; stroke: #757575; stroke-width: 1.9; stroke-linecap: round"/>
   </g>
   <g id="line2d_11">
    <path d="M 418.19026 370.114286 
L 410.281169 370.114286 
" clip-path="url(#p9cb1b41b40)" style="fill: none; stroke: #757575; stroke-width: 1.9; stroke-linecap: round"/>
   </g>
   <g id="line2d_12">
    <path d="M 606.878571 408.52987 
L 588.800649 408.52987 
" clip-path="url(#p9cb1b41b40)" style="fill: none; stroke: #757575; stroke-width: 1.9; stroke-linecap: round"/>
   </g>
   <g id="line2d_13">
    <path d="M 608.008442 409.65974 
L 612.527922 441.296104 
" clip-path="url(#p9cb1b41b40)" style="fill: none; stroke: #757575; stroke-width: 1.9; stroke-linecap: round"/>
   </g>
   <g id="line2d_14">
    <path d="M 609.138312 406.27013 
L 610.268182 310.231169 
" clip-path="url(#p9cb1b41b40)" style="fill: none; stroke: #757575; stroke-width: 1.9; stroke-linecap: round"/>
   </g>
   <g id="line2d_15">
    <path d="M 610.268182 407.4 
L 633.995455 407.4 
L 641.904545 411.919481 
" clip-path="url(#p9cb1b41b40)" style="fill: none; stroke: #757575; stroke-width: 1.9; stroke-linecap: round"/>
   </g>
   <g id="line2d_16">
    <path d="M 408.021429 370.114286 
L 396.722727 364.464935 
L 366.216234 364.464935 
" clip-path="url(#p9cb1b41b40)" style="fill: none; stroke: #757575; stroke-width: 1.9; stroke-linecap: round"/>
   </g>
   <g id="line2d_17">
    <path d="M 105.216234 183.685714 
L 104.086364 180.296104 
" clip-path="url(#p9cb1b41b40)" style="fill: none; stroke: #3f3f3f; stroke-width: 3; stroke-linecap: round"/>
   </g>
   <g id="line2d_18">
    <path d="M 106.346104 184.815584 
L 135.722727 228.880519 
L 160.57987 283.114286 
L 167.359091 289.893506 
L 193.346104 287.633766 
L 257.748701 274.075325 
" clip-path="url(#p9cb1b41b40)" style="fill: none; stroke: #757575; stroke-width: 1.9; stroke-linecap: round"/>
   </g>
   <g id="line2d_19">
    <path d="M 826.073377 481.971429 
L 822.683766 479.711688 
" clip-path="url(#p9cb1b41b40)" style="fill: none; stroke: #000000; stroke-width: 4.8; stroke-linecap: round"/>
   </g>
   <g id="line2d_20">
    <path d="M 828.333117 481.971429 
L 848.670779 480.841558 
" clip-path="url(#p9cb1b41b40)" style="fill: none; stroke: #3f3f3f; stroke-width: 3; stroke-linecap: round"/>
   </g>
   <g id="line2d_21">
    <path d="M 496.151299 96.685714 
L 523.268182 144.14026 
" clip-path="url(#p9cb1b41b40)" style="fill: none; stroke: #757575; stroke-width: 1.9; stroke-linecap: round"/>
   </g>
   <g id="line2d_22">
    <path d="M 496.151299 96.685714 
L 508.57987 89.906494 
" clip-path="url(#p9cb1b41b40)" style="fill: none; stroke: #b0b0b0; stroke-width: 1.1; stroke-linecap: round"/>
   </g>
   <g id="line2d_23">
    <path d="M 262.268182 285.374026 
L 273.566883 333.958442 
" clip-path="url(#p9cb1b41b40)" style="fill: none; stroke: #757575; stroke-width: 1.9; stroke-linecap: round"/>
   </g>
   <g id="line2d_24">
    <path d="M 262.268182 283.114286 
L 258.878571 275.205195 
" clip-path="url(#p9cb1b41b40)" style="fill: none; stroke: #3f3f3f; stroke-width: 3; stroke-linecap: round"/>
   </g>
   <g id="line2d_25">
    <path d="M 339.099351 445.815584 
L 313.112338 410.78961 
L 307.462987 390.451948 
L 307.462987 374.633766 
" clip-path="url(#p9cb1b41b40)" style="fill: none; stroke: #b0b0b0; stroke-width: 1.1; stroke-linecap: round"/>
   </g>
   <g id="line2d_26">
    <path d="M 339.099351 445.815584 
L 301.813636 453.724675 
L 292.774675 439.036364 
" clip-path="url(#p9cb1b41b40)" style="fill: none; stroke: #757575; stroke-width: 1.9; stroke-linecap: round"/>
   </g>
   <g id="line2d_27">
    <path d="M 339.099351 445.815584 
L 383.164286 475.192208 
L 415.930519 484.231169 
" clip-path="url(#p9cb1b41b40)" style="fill: none; stroke: #b0b0b0; stroke-width: 1.1; stroke-linecap: round"/>
   </g>
   <g id="line2d_28">
    <path d="M 643.034416 423.218182 
L 655.462987 425.477922 
L 656.592857 422.088312 
" clip-path="url(#p9cb1b41b40)" style="fill: none; stroke: #757575; stroke-width: 1.9; stroke-linecap: round"/>
   </g>
   <g id="line2d_29">
    <path d="M 641.904545 422.088312 
L 641.904545 413.049351 
" clip-path="url(#p9cb1b41b40)" style="fill: none; stroke: #000000; stroke-width: 4.8; stroke-linecap: round"/>
   </g>
   <g id="line2d_30">
    <path d="M 640.774675 423.218182 
L 639.644805 443.555844 
" clip-path="url(#p9cb1b41b40)" style="fill: none; stroke: #3f3f3f; stroke-width: 3; stroke-linecap: round"/>
   </g>
   <g id="line2d_31">
    <path d="M 526.657792 71.828571 
L 532.307143 51.490909 
L 541.346104 35.672727 
" clip-path="url(#p9cb1b41b40)" style="fill: none; stroke: #757575; stroke-width: 1.9; stroke-linecap: round"/>
   </g>
   <g id="line2d_32">
    <path d="M 525.527922 72.958442 
L 502.930519 70.698701 
" clip-path="url(#p9cb1b41b40)" style="fill: none; stroke: #b0b0b0; stroke-width: 1.1; stroke-linecap: round"/>
   </g>
   <g id="line2d_33">
    <path d="M 526.657792 74.088312 
L 524.398052 80.867532 
L 508.57987 89.906494 
" clip-path="url(#p9cb1b41b40)" style="fill: none; stroke: #b0b0b0; stroke-width: 1.1; stroke-linecap: round"/>
   </g>
   <g id="line2d_34">
    <path d="M 387.683766 138.490909 
L 380.904545 182.555844 
" clip-path="url(#p9cb1b41b40)" style="fill: none; stroke: #757575; stroke-width: 1.9; stroke-linecap: round"/>
   </g>
   <g id="line2d_35">
    <path d="M 389.943506 138.490909 
L 395.592857 143.01039 
L 405.761688 182.555844 
" clip-path="url(#p9cb1b41b40)" style="fill: none; stroke: #757575; stroke-width: 1.9; stroke-linecap: round"/>
   </g>
   <g id="line2d_36">
    <path d="M 388.813636 137.361039 
L 388.813636 130.581818 
" clip-path="url(#p9cb1b41b40)" style="fill: none; stroke: #000000; stroke-width: 4.8; stroke-linecap: round"/>
   </g>
   <g id="line2d_37">
    <path d="M 195.605844 105.724675 
L 196.735714 114.763636 
L 244.19026 201.763636 
L 244.19026 213.062338 
" clip-path="url(#p9cb1b41b40)" style="fill: none; stroke: #757575; stroke-width: 1.9; stroke-linecap: round"/>
   </g>
   <g id="line2d_38">
    <path d="M 194.475974 104.594805 
L 188.826623 100.075325 
L 159.45 43.581818 
" clip-path="url(#p9cb1b41b40)" style="fill: none; stroke: #757575; stroke-width: 1.9; stroke-linecap: round"/>
   </g>
   <g id="line2d_39">
    <path d="M 196.735714 104.594805 
L 227.242208 91.036364 
L 243.06039 87.646753 
" clip-path="url(#p9cb1b41b40)" style="fill: none; stroke: #757575; stroke-width: 1.9; stroke-linecap: round"/>
   </g>
   <g id="line2d_40">
    <path d="M 802.346104 374.633766 
L 801.216234 364.464935 
L 785.398052 324.919481 
L 759.411039 294.412987 
" clip-path="url(#p9cb1b41b40)" style="fill: none; stroke: #757575; stroke-width: 1.9; stroke-linecap: round"/>
   </g>
   <g id="line2d_41">
    <path d="M 801.216234 375.763636 
L 751.501948 388.192208 
" clip-path="url(#p9cb1b41b40)" style="fill: none; stroke: #757575; stroke-width: 1.9; stroke-linecap: round"/>
   </g>
   <g id="line2d_42">
    <path d="M 803.475974 375.763636 
L 809.125325 472.932468 
L 822.683766 479.711688 
" clip-path="url(#p9cb1b41b40)" style="fill: none; stroke: #757575; stroke-width: 1.9; stroke-linecap: round"/>
   </g>
   <g id="line2d_43">
    <path d="M 481.462987 437.906494 
L 480.333117 494.4 
" clip-path="url(#p9cb1b41b40)" style="fill: none; stroke: #b0b0b0; stroke-width: 1.1; stroke-linecap: round"/>
   </g>
   <g id="line2d_44">
    <path d="M 482.592857 436.776623 
L 530.047403 434.516883 
" clip-path="url(#p9cb1b41b40)" style="fill: none; stroke: #3f3f3f; stroke-width: 3; stroke-linecap: round"/>
   </g>
   <g id="line2d_45">
    <path d="M 546.995455 301.192208 
L 593.32013 301.192208 
" clip-path="url(#p9cb1b41b40)" style="fill: none; stroke: #757575; stroke-width: 1.9; stroke-linecap: round"/>
   </g>
   <g id="line2d_46">
    <path d="M 545.865584 300.062338 
L 551.514935 239.049351 
" clip-path="url(#p9cb1b41b40)" style="fill: none; stroke: #757575; stroke-width: 1.9; stroke-linecap: round"/>
   </g>
   <g id="line2d_47">
    <path d="M 544.735714 301.192208 
L 532.307143 304.581818 
" clip-path="url(#p9cb1b41b40)" style="fill: none; stroke: #3f3f3f; stroke-width: 3; stroke-linecap: round"/>
   </g>
   <g id="line2d_48">
    <path d="M 368.475974 265.036364 
L 380.904545 183.685714 
" clip-path="url(#p9cb1b41b40)" style="fill: none; stroke: #757575; stroke-width: 1.9; stroke-linecap: round"/>
   </g>
   <g id="line2d_49">
    <path d="M 368.475974 266.166234 
L 363.956494 270.685714 
L 360.566883 283.114286 
" clip-path="url(#p9cb1b41b40)" style="fill: none; stroke: #757575; stroke-width: 1.9; stroke-linecap: round"/>
   </g>
   <g id="line2d_50">
    <path d="M 531.177273 305.711688 
L 526.657792 318.14026 
L 524.398052 356.555844 
" clip-path="url(#p9cb1b41b40)" style="fill: none; stroke: #757575; stroke-width: 1.9; stroke-linecap: round"/>
   </g>
   <g id="line2d_51">
    <path d="M 531.177273 303.451948 
L 515.359091 280.854545 
L 483.722727 260.516883 
" clip-path="url(#p9cb1b41b40)" style="fill: none; stroke: #757575; stroke-width: 1.9; stroke-linecap: round"/>
   </g>
   <g id="line2d_52">
    <path d="M 646.424026 124.932468 
L 690.488961 36.802597 
L 693.878571 35.672727 
" clip-path="url(#p9cb1b41b40)" style="fill: none; stroke: #757575; stroke-width: 1.9; stroke-linecap: round"/>
   </g>
   <g id="line2d_53">
    <path d="M 645.294156 126.062338 
L 639.644805 136.231169 
L 638.514935 167.867532 
" clip-path="url(#p9cb1b41b40)" style="fill: none; stroke: #3f3f3f; stroke-width: 3; stroke-linecap: round"/>
   </g>
   <g id="line2d_54">
    <path d="M 647.553896 126.062338 
L 752.631818 143.01039 
L 778.618831 150.919481 
L 792.177273 158.828571 
L 810.255195 176.906494 
L 818.164286 205.153247 
" clip-path="url(#p9cb1b41b40)" style="fill: none; stroke: #757575; stroke-width: 1.9; stroke-linecap: round"/>
   </g>
   <g id="line2d_55">
    <path d="M 387.683766 129.451948 
L 377.514935 124.932468 
L 311.982468 111.374026 
L 302.943506 105.724675 
" clip-path="url(#p9cb1b41b40)" style="fill: none; stroke: #757575; stroke-width: 1.9; stroke-linecap: round"/>
   </g>
   <g id="line2d_56">
    <path d="M 258.878571 272.945455 
L 249.83961 234.52987 
" clip-path="url(#p9cb1b41b40)" style="fill: none; stroke: #757575; stroke-width: 1.9; stroke-linecap: round"/>
   </g>
   <g id="line2d_57">
    <path d="M 61.151299 113.633766 
L 67.930519 119.283117 
L 96.177273 165.607792 
L 95.047403 176.906494 
" clip-path="url(#p9cb1b41b40)" style="fill: none; stroke: #757575; stroke-width: 1.9; stroke-linecap: round"/>
   </g>
   <g id="line2d_58">
    <path d="M 60.021429 112.503896 
L 57.761688 103.464935 
L 48.722727 94.425974 
" clip-path="url(#p9cb1b41b40)" style="fill: none; stroke: #757575; stroke-width: 1.9; stroke-linecap: round"/>
   </g>
   <g id="line2d_59">
    <path d="M 818.164286 206.283117 
L 794.437013 211.932468 
L 771.83961 222.101299 
L 751.501948 241.309091 
L 735.683766 263.906494 
" clip-path="url(#p9cb1b41b40)" style="fill: none; stroke: #757575; stroke-width: 1.9; stroke-linecap: round"/>
   </g>
   <g id="line2d_60">
    <path d="M 849.800649 489.880519 
L 850.930519 505.698701 
" clip-path="url(#p9cb1b41b40)" style="fill: none; stroke: #757575; stroke-width: 1.9; stroke-linecap: round"/>
   </g>
   <g id="line2d_61">
    <path d="M 849.800649 487.620779 
L 849.800649 481.971429 
" clip-path="url(#p9cb1b41b40)" style="fill: none; stroke: #757575; stroke-width: 1.9; stroke-linecap: round"/>
   </g>
   <g id="line2d_62">
    <path d="M 501.800649 69.568831 
L 504.06039 45.841558 
L 508.57987 37.932468 
L 514.229221 35.672727 
" clip-path="url(#p9cb1b41b40)" style="fill: none; stroke: #b0b0b0; stroke-width: 1.1; stroke-linecap: round"/>
   </g>
   <g id="line2d_63">
    <path d="M 530.047403 434.516883 
L 543.605844 409.65974 
" clip-path="url(#p9cb1b41b40)" style="fill: none; stroke: #3f3f3f; stroke-width: 3; stroke-linecap: round"/>
   </g>
   <g id="line2d_64">
    <path d="M 530.047403 434.516883 
L 531.177273 436.776623 
" clip-path="url(#p9cb1b41b40)" style="fill: none; stroke: #000000; stroke-width: 4.8; stroke-linecap: round"/>
   </g>
   <g id="line2d_65">
    <path d="M 524.398052 356.555844 
L 508.57987 354.296104 
L 491.631818 346.387013 
L 469.034416 307.971429 
L 463.385065 302.322078 
L 452.086364 301.192208 
" clip-path="url(#p9cb1b41b40)" style="fill: none; stroke: #757575; stroke-width: 1.9; stroke-linecap: round"/>
   </g>
   <g id="line2d_66">
    <path d="M 524.398052 356.555844 
L 536.826623 379.153247 
L 541.346104 402.880519 
" clip-path="url(#p9cb1b41b40)" style="fill: none; stroke: #757575; stroke-width: 1.9; stroke-linecap: round"/>
   </g>
   <g id="line2d_67">
    <path d="M 541.346104 405.14026 
L 543.605844 409.65974 
" clip-path="url(#p9cb1b41b40)" style="fill: none; stroke: #3f3f3f; stroke-width: 3; stroke-linecap: round"/>
   </g>
   <g id="line2d_68">
    <path d="M 284.865584 375.763636 
L 280.346104 370.114286 
L 278.086364 355.425974 
" clip-path="url(#p9cb1b41b40)" style="fill: none; stroke: #757575; stroke-width: 1.9; stroke-linecap: round"/>
   </g>
   <g id="line2d_69">
    <path d="M 284.865584 376.893506 
L 293.904545 416.438961 
L 292.774675 425.477922 
" clip-path="url(#p9cb1b41b40)" style="fill: none; stroke: #757575; stroke-width: 1.9; stroke-linecap: round"/>
   </g>
   <g id="line2d_70">
    <path d="M 285.995455 375.763636 
L 306.333117 373.503896 
" clip-path="url(#p9cb1b41b40)" style="fill: none; stroke: #757575; stroke-width: 1.9; stroke-linecap: round"/>
   </g>
   <g id="line2d_71">
    <path d="M 532.307143 437.906494 
L 611.398052 442.425974 
" clip-path="url(#p9cb1b41b40)" style="fill: none; stroke: #757575; stroke-width: 1.9; stroke-linecap: round"/>
   </g>
   <g id="line2d_72">
    <path d="M 531.177273 439.036364 
L 536.826623 479.711688 
L 546.995455 489.880519 
" clip-path="url(#p9cb1b41b40)" style="fill: none; stroke: #757575; stroke-width: 1.9; stroke-linecap: round"/>
   </g>
   <g id="line2d_73">
    <path d="M 417.06039 484.231169 
L 479.203247 495.52987 
" clip-path="url(#p9cb1b41b40)" style="fill: none; stroke: #757575; stroke-width: 1.9; stroke-linecap: round"/>
   </g>
   <g id="line2d_74">
    <path d="M 643.034416 411.919481 
L 648.683766 406.27013 
L 672.411039 406.27013 
" clip-path="url(#p9cb1b41b40)" style="fill: none; stroke: #757575; stroke-width: 1.9; stroke-linecap: round"/>
   </g>
   <g id="line2d_75">
    <path d="M 617.047403 507.958442 
L 630.605844 507.958442 
" clip-path="url(#p9cb1b41b40)" style="fill: none; stroke: #757575; stroke-width: 1.9; stroke-linecap: round"/>
   </g>
   <g id="line2d_76">
    <path d="M 613.657792 509.088312 
L 548.125325 504.568831 
" clip-path="url(#p9cb1b41b40)" style="fill: none; stroke: #757575; stroke-width: 1.9; stroke-linecap: round"/>
   </g>
   <g id="line2d_77">
    <path d="M 615.917532 506.828571 
L 614.787662 443.555844 
" clip-path="url(#p9cb1b41b40)" style="fill: none; stroke: #757575; stroke-width: 1.9; stroke-linecap: round"/>
   </g>
   <g id="line2d_78">
    <path d="M 614.787662 510.218182 
L 606.878571 550.893506 
L 591.06039 574.620779 
L 588.800649 587.049351 
" clip-path="url(#p9cb1b41b40)" style="fill: none; stroke: #b0b0b0; stroke-width: 1.1; stroke-linecap: round"/>
   </g>
   <g id="line2d_79">
    <path d="M 751.501948 389.322078 
L 761.670779 417.568831 
L 760.540909 429.997403 
" clip-path="url(#p9cb1b41b40)" style="fill: none; stroke: #757575; stroke-width: 1.9; stroke-linecap: round"/>
   </g>
   <g id="line2d_80">
    <path d="M 750.372078 388.192208 
L 728.904545 366.724675 
" clip-path="url(#p9cb1b41b40)" style="fill: none; stroke: #757575; stroke-width: 1.9; stroke-linecap: round"/>
   </g>
   <g id="line2d_81">
    <path d="M 594.45 300.062338 
L 630.605844 244.698701 
L 658.852597 211.932468 
" clip-path="url(#p9cb1b41b40)" style="fill: none; stroke: #757575; stroke-width: 1.9; stroke-linecap: round"/>
   </g>
   <g id="line2d_82">
    <path d="M 594.45 302.322078 
L 610.268182 307.971429 
" clip-path="url(#p9cb1b41b40)" style="fill: none; stroke: #b0b0b0; stroke-width: 1.1; stroke-linecap: round"/>
   </g>
   <g id="line2d_83">
    <path d="M 481.462987 495.52987 
L 545.865584 504.568831 
" clip-path="url(#p9cb1b41b40)" style="fill: none; stroke: #757575; stroke-width: 1.9; stroke-linecap: round"/>
   </g>
   <g id="line2d_84">
    <path d="M 637.385065 184.815584 
L 639.644805 182.555844 
" clip-path="url(#p9cb1b41b40)" style="fill: none; stroke: #3f3f3f; stroke-width: 3; stroke-linecap: round"/>
   </g>
   <g id="line2d_85">
    <path d="M 637.385065 185.945455 
L 658.852597 209.672727 
" clip-path="url(#p9cb1b41b40)" style="fill: none; stroke: #757575; stroke-width: 1.9; stroke-linecap: round"/>
   </g>
   <g id="line2d_86">
    <path d="M 696.138312 339.607792 
L 685.969481 354.296104 
" clip-path="url(#p9cb1b41b40)" style="fill: none; stroke: #757575; stroke-width: 1.9; stroke-linecap: round"/>
   </g>
   <g id="line2d_87">
    <path d="M 698.398052 339.607792 
L 704.047403 340.737662 
L 723.255195 355.425974 
" clip-path="url(#p9cb1b41b40)" style="fill: none; stroke: #3f3f3f; stroke-width: 3; stroke-linecap: round"/>
   </g>
   <g id="line2d_88">
    <path d="M 697.268182 338.477922 
L 690.488961 330.568831 
L 679.19026 326.049351 
" clip-path="url(#p9cb1b41b40)" style="fill: none; stroke: #757575; stroke-width: 1.9; stroke-linecap: round"/>
   </g>
   <g id="line2d_89">
    <path d="M 524.398052 146.4 
L 528.917532 165.607792 
L 530.047403 192.724675 
L 545.865584 207.412987 
" clip-path="url(#p9cb1b41b40)" style="fill: none; stroke: #757575; stroke-width: 1.9; stroke-linecap: round"/>
   </g>
   <g id="line2d_90">
    <path d="M 522.138312 146.4 
L 409.151299 183.685714 
" clip-path="url(#p9cb1b41b40)" style="fill: none; stroke: #757575; stroke-width: 1.9; stroke-linecap: round"/>
   </g>
   <g id="line2d_91">
    <path d="M 524.398052 144.14026 
L 549.255195 136.231169 
L 574.112338 139.620779 
L 615.917532 168.997403 
" clip-path="url(#p9cb1b41b40)" style="fill: none; stroke: #757575; stroke-width: 1.9; stroke-linecap: round"/>
   </g>
   <g id="line2d_92">
    <path d="M 675.800649 409.65974 
L 714.216234 431.127273 
" clip-path="url(#p9cb1b41b40)" style="fill: none; stroke: #757575; stroke-width: 1.9; stroke-linecap: round"/>
   </g>
   <g id="line2d_93">
    <path d="M 674.670779 409.65974 
L 673.540909 458.244156 
" clip-path="url(#p9cb1b41b40)" style="fill: none; stroke: #757575; stroke-width: 1.9; stroke-linecap: round"/>
   </g>
   <g id="line2d_94">
    <path d="M 673.540909 405.14026 
L 674.670779 375.763636 
L 680.32013 366.724675 
" clip-path="url(#p9cb1b41b40)" style="fill: none; stroke: #757575; stroke-width: 1.9; stroke-linecap: round"/>
   </g>
   <g id="line2d_95">
    <path d="M 850.930519 507.958442 
L 852.06039 529.425974 
" clip-path="url(#p9cb1b41b40)" style="fill: none; stroke: #757575; stroke-width: 1.9; stroke-linecap: round"/>
   </g>
   <g id="line2d_96">
    <path d="M 639.644805 443.555844 
L 633.995455 444.685714 
" clip-path="url(#p9cb1b41b40)" style="fill: none; stroke: #757575; stroke-width: 1.9; stroke-linecap: round"/>
   </g>
   <g id="line2d_97">
    <path d="M 639.644805 443.555844 
L 648.683766 450.335065 
L 657.722727 450.335065 
" clip-path="url(#p9cb1b41b40)" style="fill: none; stroke: #b0b0b0; stroke-width: 1.1; stroke-linecap: round"/>
   </g>
   <g id="line2d_98">
    <path d="M 405.761688 183.685714 
L 400.112338 185.945455 
L 382.034416 183.685714 
" clip-path="url(#p9cb1b41b40)" style="fill: none; stroke: #757575; stroke-width: 1.9; stroke-linecap: round"/>
   </g>
   <g id="line2d_99">
    <path d="M 408.021429 184.815584 
L 421.57987 240.179221 
L 426.099351 248.088312 
L 423.83961 293.283117 
" clip-path="url(#p9cb1b41b40)" style="fill: none; stroke: #3f3f3f; stroke-width: 3; stroke-linecap: round"/>
   </g>
   <g id="line2d_100">
    <path d="M 421.57987 294.412987 
L 360.566883 284.244156 
" clip-path="url(#p9cb1b41b40)" style="fill: none; stroke: #757575; stroke-width: 1.9; stroke-linecap: round"/>
   </g>
   <g id="line2d_101">
    <path d="M 424.969481 294.412987 
L 449.826623 301.192208 
" clip-path="url(#p9cb1b41b40)" style="fill: none; stroke: #3f3f3f; stroke-width: 3; stroke-linecap: round"/>
   </g>
   <g id="line2d_102">
    <path d="M 659.982468 210.802597 
L 665.631818 211.932468 
L 683.70974 226.620779 
L 688.229221 226.620779 
" clip-path="url(#p9cb1b41b40)" style="fill: none; stroke: #757575; stroke-width: 1.9; stroke-linecap: round"/>
   </g>
   <g id="line2d_103">
    <path d="M 673.540909 460.503896 
L 673.540909 468.412987 
L 665.631818 478.581818 
" clip-path="url(#p9cb1b41b40)" style="fill: none; stroke: #757575; stroke-width: 1.9; stroke-linecap: round"/>
   </g>
   <g id="line2d_104">
    <path d="M 309.722727 372.374026 
L 332.32013 370.114286 
" clip-path="url(#p9cb1b41b40)" style="fill: none; stroke: #b0b0b0; stroke-width: 1.1; stroke-linecap: round"/>
   </g>
   <g id="line2d_105">
    <path d="M 852.06039 531.685714 
L 854.32013 571.231169 
L 858.83961 580.27013 
" clip-path="url(#p9cb1b41b40)" style="fill: none; stroke: #757575; stroke-width: 1.9; stroke-linecap: round"/>
   </g>
   <g id="line2d_106">
    <path d="M 854.32013 600.607792 
L 857.70974 582.52987 
" clip-path="url(#p9cb1b41b40)" style="fill: none; stroke: #757575; stroke-width: 1.9; stroke-linecap: round"/>
   </g>
   <g id="line2d_107">
    <path d="M 853.19026 600.607792 
L 831.722727 599.477922 
L 826.073377 600.607792 
L 823.813636 605.127273 
" clip-path="url(#p9cb1b41b40)" style="fill: none; stroke: #757575; stroke-width: 1.9; stroke-linecap: round"/>
   </g>
   <g id="line2d_108">
    <path d="M 728.904545 366.724675 
L 723.255195 355.425974 
" clip-path="url(#p9cb1b41b40)" style="fill: none; stroke: #b0b0b0; stroke-width: 1.1; stroke-linecap: round"/>
   </g>
   <g id="line2d_109">
    <path d="M 665.631818 480.841558 
L 663.372078 509.088312 
" clip-path="url(#p9cb1b41b40)" style="fill: none; stroke: #757575; stroke-width: 1.9; stroke-linecap: round"/>
   </g>
   <g id="line2d_110">
    <path d="M 664.501948 479.711688 
L 633.995455 481.971429 
" clip-path="url(#p9cb1b41b40)" style="fill: none; stroke: #757575; stroke-width: 1.9; stroke-linecap: round"/>
   </g>
   <g id="line2d_111">
    <path d="M 733.424026 440.166234 
L 741.333117 448.075325 
L 756.021429 454.854545 
" clip-path="url(#p9cb1b41b40)" style="fill: none; stroke: #757575; stroke-width: 1.9; stroke-linecap: round"/>
   </g>
   <g id="line2d_112">
    <path d="M 614.787662 443.555844 
L 632.865584 444.685714 
" clip-path="url(#p9cb1b41b40)" style="fill: none; stroke: #757575; stroke-width: 1.9; stroke-linecap: round"/>
   </g>
   <g id="line2d_113">
    <path d="M 632.865584 507.958442 
L 662.242208 510.218182 
" clip-path="url(#p9cb1b41b40)" style="fill: none; stroke: #3f3f3f; stroke-width: 3; stroke-linecap: round"/>
   </g>
   <g id="line2d_114">
    <path d="M 631.735714 506.828571 
L 633.995455 481.971429 
" clip-path="url(#p9cb1b41b40)" style="fill: none; stroke: #757575; stroke-width: 1.9; stroke-linecap: round"/>
   </g>
   <g id="line2d_115">
    <path d="M 859.969481 581.4 
L 873.527922 582.52987 
L 879.177273 579.14026 
" clip-path="url(#p9cb1b41b40)" style="fill: none; stroke: #000000; stroke-width: 4.8; stroke-linecap: round"/>
   </g>
   <g id="line2d_116">
    <path d="M 663.372078 510.218182 
L 690.488961 521.516883 
" clip-path="url(#p9cb1b41b40)" style="fill: none; stroke: #3f3f3f; stroke-width: 3; stroke-linecap: round"/>
   </g>
   <g id="line2d_117">
    <path d="M 611.398052 309.101299 
L 639.644805 315.880519 
" clip-path="url(#p9cb1b41b40)" style="fill: none; stroke: #b0b0b0; stroke-width: 1.1; stroke-linecap: round"/>
   </g>
   <g id="line2d_118">
    <path d="M 546.995455 492.14026 
L 546.995455 503.438961 
" clip-path="url(#p9cb1b41b40)" style="fill: none; stroke: #b0b0b0; stroke-width: 1.1; stroke-linecap: round"/>
   </g>
   <g id="line2d_119">
    <path d="M 292.774675 426.607792 
L 292.774675 439.036364 
" clip-path="url(#p9cb1b41b40)" style="fill: none; stroke: #3f3f3f; stroke-width: 3; stroke-linecap: round"/>
   </g>
   <g id="line2d_120">
    <path d="M 632.865584 445.815584 
L 633.995455 481.971429 
" clip-path="url(#p9cb1b41b40)" style="fill: none; stroke: #757575; stroke-width: 1.9; stroke-linecap: round"/>
   </g>
   <g id="line2d_121">
    <path d="M 692.748701 521.516883 
L 718.735714 522.646753 
L 740.203247 528.296104 
" clip-path="url(#p9cb1b41b40)" style="fill: none; stroke: #b0b0b0; stroke-width: 1.1; stroke-linecap: round"/>
   </g>
   <g id="line2d_122">
    <path d="M 691.618831 522.646753 
L 715.346104 548.633766 
L 734.553896 584.78961 
L 739.073377 583.65974 
" clip-path="url(#p9cb1b41b40)" style="fill: none; stroke: #757575; stroke-width: 1.9; stroke-linecap: round"/>
   </g>
   <g id="line2d_123">
    <path d="M 741.333117 528.296104 
L 756.021429 524.906494 
L 757.151299 455.984416 
" clip-path="url(#p9cb1b41b40)" style="fill: none; stroke: #757575; stroke-width: 1.9; stroke-linecap: round"/>
   </g>
   <g id="line2d_124">
    <path d="M 740.203247 529.425974 
L 737.943506 549.763636 
L 741.333117 570.101299 
" clip-path="url(#p9cb1b41b40)" style="fill: none; stroke: #b0b0b0; stroke-width: 1.1; stroke-linecap: round"/>
   </g>
   <g id="line2d_125">
    <path d="M 685.969481 354.296104 
L 680.32013 366.724675 
" clip-path="url(#p9cb1b41b40)" style="fill: none; stroke: #b0b0b0; stroke-width: 1.1; stroke-linecap: round"/>
   </g>
   <g id="line2d_126">
    <path d="M 543.605844 409.65974 
L 568.462987 408.52987 
" clip-path="url(#p9cb1b41b40)" style="fill: none; stroke: #757575; stroke-width: 1.9; stroke-linecap: round"/>
   </g>
   <g id="line2d_127">
    <path d="M 95.047403 176.906494 
L 104.086364 180.296104 
" clip-path="url(#p9cb1b41b40)" style="fill: none; stroke: #b0b0b0; stroke-width: 1.1; stroke-linecap: round"/>
   </g>
   <g id="line2d_128">
    <path d="M 757.151299 454.854545 
L 761.670779 444.685714 
" clip-path="url(#p9cb1b41b40)" style="fill: none; stroke: #3f3f3f; stroke-width: 3; stroke-linecap: round"/>
   </g>
   <g id="line2d_129">
    <path d="M 761.670779 444.685714 
L 760.540909 429.997403 
" clip-path="url(#p9cb1b41b40)" style="fill: none; stroke: #757575; stroke-width: 1.9; stroke-linecap: round"/>
   </g>
   <g id="line2d_130">
    <path d="M 639.644805 182.555844 
L 638.514935 167.867532 
" clip-path="url(#p9cb1b41b40)" style="fill: none; stroke: #757575; stroke-width: 1.9; stroke-linecap: round"/>
   </g>
   <g id="line2d_131">
    <path d="M 249.83961 234.52987 
L 244.19026 213.062338 
" clip-path="url(#p9cb1b41b40)" style="fill: none; stroke: #b0b0b0; stroke-width: 1.1; stroke-linecap: round"/>
   </g>
   <g id="PathCollection_1">
    <defs>
     <path id="mf7a2918b28" d="M 0 1.581139 
C 0.419323 1.581139 0.821528 1.41454 1.118034 1.118034 
C 1.41454 0.821528 1.581139 0.419323 1.581139 0 
C 1.581139 -0.419323 1.41454 -0.821528 1.118034 -1.118034 
C 0.821528 -1.41454 0.419323 -1.581139 0 -1.581139 
C -0.419323 -1.581139 -0.821528 -1.41454 -1.118034 -1.118034 
C -1.41454 -0.821528 -1.581139 -0.419323 -1.581139 0 
C -1.581139 0.419323 -1.41454 0.821528 -1.118034 1.118034 
C -0.821528 1.41454 -0.419323 1.581139 0 1.581139 
z
" style="stroke: #000000"/>
    </defs>
    <g clip-path="url(#p9cb1b41b40)">
     <use xlink:href="#mf7a2918b28" x="514.229221" y="35.672727" style="stroke: #000000"/>
     <use xlink:href="#mf7a2918b28" x="541.346104" y="35.672727" style="stroke: #000000"/>
     <use xlink:href="#mf7a2918b28" x="693.878571" y="35.672727" style="stroke: #000000"/>
     <use xlink:href="#mf7a2918b28" x="159.45" y="43.581818" style="stroke: #000000"/>
     <use xlink:href="#mf7a2918b28" x="501.800649" y="70.698701" style="stroke: #000000"/>
     <use xlink:href="#mf7a2918b28" x="526.657792" y="72.958442" style="stroke: #000000"/>
     <use xlink:href="#mf7a2918b28" x="243.06039" y="87.646753" style="stroke: #000000"/>
     <use xlink:href="#mf7a2918b28" x="508.57987" y="89.906494" style="stroke: #000000"/>
     <use xlink:href="#mf7a2918b28" x="48.722727" y="94.425974" style="stroke: #000000"/>
     <use xlink:href="#mf7a2918b28" x="496.151299" y="96.685714" style="stroke: #000000"/>
     <use xlink:href="#mf7a2918b28" x="195.605844" y="104.594805" style="stroke: #000000"/>
     <use xlink:href="#mf7a2918b28" x="302.943506" y="105.724675" style="stroke: #000000"/>
     <use xlink:href="#mf7a2918b28" x="60.021429" y="113.633766" style="stroke: #000000"/>
     <use xlink:href="#mf7a2918b28" x="646.424026" y="126.062338" style="stroke: #000000"/>
     <use xlink:href="#mf7a2918b28" x="388.813636" y="129.451948" style="stroke: #000000"/>
     <use xlink:href="#mf7a2918b28" x="388.813636" y="138.490909" style="stroke: #000000"/>
     <use xlink:href="#mf7a2918b28" x="523.268182" y="145.27013" style="stroke: #000000"/>
     <use xlink:href="#mf7a2918b28" x="638.514935" y="167.867532" style="stroke: #000000"/>
     <use xlink:href="#mf7a2918b28" x="615.917532" y="168.997403" style="stroke: #000000"/>
     <use xlink:href="#mf7a2918b28" x="95.047403" y="176.906494" style="stroke: #000000"/>
     <use xlink:href="#mf7a2918b28" x="104.086364" y="180.296104" style="stroke: #000000"/>
     <use xlink:href="#mf7a2918b28" x="639.644805" y="182.555844" style="stroke: #000000"/>
     <use xlink:href="#mf7a2918b28" x="380.904545" y="183.685714" style="stroke: #000000"/>
     <use xlink:href="#mf7a2918b28" x="406.891558" y="183.685714" style="stroke: #000000"/>
     <use xlink:href="#mf7a2918b28" x="105.216234" y="184.815584" style="stroke: #000000"/>
     <use xlink:href="#mf7a2918b28" x="637.385065" y="184.815584" style="stroke: #000000"/>
     <use xlink:href="#mf7a2918b28" x="818.164286" y="206.283117" style="stroke: #000000"/>
     <use xlink:href="#mf7a2918b28" x="545.865584" y="207.412987" style="stroke: #000000"/>
     <use xlink:href="#mf7a2918b28" x="658.852597" y="210.802597" style="stroke: #000000"/>
     <use xlink:href="#mf7a2918b28" x="244.19026" y="213.062338" style="stroke: #000000"/>
     <use xlink:href="#mf7a2918b28" x="688.229221" y="226.620779" style="stroke: #000000"/>
     <use xlink:href="#mf7a2918b28" x="249.83961" y="234.52987" style="stroke: #000000"/>
     <use xlink:href="#mf7a2918b28" x="551.514935" y="239.049351" style="stroke: #000000"/>
     <use xlink:href="#mf7a2918b28" x="483.722727" y="260.516883" style="stroke: #000000"/>
     <use xlink:href="#mf7a2918b28" x="735.683766" y="263.906494" style="stroke: #000000"/>
     <use xlink:href="#mf7a2918b28" x="370.735714" y="266.166234" style="stroke: #000000"/>
     <use xlink:href="#mf7a2918b28" x="258.878571" y="274.075325" style="stroke: #000000"/>
     <use xlink:href="#mf7a2918b28" x="262.268182" y="284.244156" style="stroke: #000000"/>
     <use xlink:href="#mf7a2918b28" x="360.566883" y="284.244156" style="stroke: #000000"/>
     <use xlink:href="#mf7a2918b28" x="356.047403" y="285.374026" style="stroke: #000000"/>
     <use xlink:href="#mf7a2918b28" x="423.83961" y="294.412987" style="stroke: #000000"/>
     <use xlink:href="#mf7a2918b28" x="759.411039" y="294.412987" style="stroke: #000000"/>
     <use xlink:href="#mf7a2918b28" x="450.956494" y="301.192208" style="stroke: #000000"/>
     <use xlink:href="#mf7a2918b28" x="545.865584" y="301.192208" style="stroke: #000000"/>
     <use xlink:href="#mf7a2918b28" x="594.45" y="301.192208" style="stroke: #000000"/>
     <use xlink:href="#mf7a2918b28" x="531.177273" y="304.581818" style="stroke: #000000"/>
     <use xlink:href="#mf7a2918b28" x="347.008442" y="309.101299" style="stroke: #000000"/>
     <use xlink:href="#mf7a2918b28" x="610.268182" y="309.101299" style="stroke: #000000"/>
     <use xlink:href="#mf7a2918b28" x="639.644805" y="315.880519" style="stroke: #000000"/>
     <use xlink:href="#mf7a2918b28" x="679.19026" y="326.049351" style="stroke: #000000"/>
     <use xlink:href="#mf7a2918b28" x="273.566883" y="333.958442" style="stroke: #000000"/>
     <use xlink:href="#mf7a2918b28" x="697.268182" y="339.607792" style="stroke: #000000"/>
     <use xlink:href="#mf7a2918b28" x="685.969481" y="354.296104" style="stroke: #000000"/>
     <use xlink:href="#mf7a2918b28" x="278.086364" y="355.425974" style="stroke: #000000"/>
     <use xlink:href="#mf7a2918b28" x="723.255195" y="355.425974" style="stroke: #000000"/>
     <use xlink:href="#mf7a2918b28" x="524.398052" y="356.555844" style="stroke: #000000"/>
     <use xlink:href="#mf7a2918b28" x="366.216234" y="364.464935" style="stroke: #000000"/>
     <use xlink:href="#mf7a2918b28" x="680.32013" y="366.724675" style="stroke: #000000"/>
     <use xlink:href="#mf7a2918b28" x="728.904545" y="366.724675" style="stroke: #000000"/>
     <use xlink:href="#mf7a2918b28" x="332.32013" y="370.114286" style="stroke: #000000"/>
     <use xlink:href="#mf7a2918b28" x="409.151299" y="370.114286" style="stroke: #000000"/>
     <use xlink:href="#mf7a2918b28" x="419.32013" y="371.244156" style="stroke: #000000"/>
     <use xlink:href="#mf7a2918b28" x="307.462987" y="373.503896" style="stroke: #000000"/>
     <use xlink:href="#mf7a2918b28" x="284.865584" y="375.763636" style="stroke: #000000"/>
     <use xlink:href="#mf7a2918b28" x="802.346104" y="375.763636" style="stroke: #000000"/>
     <use xlink:href="#mf7a2918b28" x="413.670779" y="378.023377" style="stroke: #000000"/>
     <use xlink:href="#mf7a2918b28" x="751.501948" y="388.192208" style="stroke: #000000"/>
     <use xlink:href="#mf7a2918b28" x="541.346104" y="404.01039" style="stroke: #000000"/>
     <use xlink:href="#mf7a2918b28" x="609.138312" y="407.4" style="stroke: #000000"/>
     <use xlink:href="#mf7a2918b28" x="673.540909" y="407.4" style="stroke: #000000"/>
     <use xlink:href="#mf7a2918b28" x="568.462987" y="408.52987" style="stroke: #000000"/>
     <use xlink:href="#mf7a2918b28" x="588.800649" y="408.52987" style="stroke: #000000"/>
     <use xlink:href="#mf7a2918b28" x="543.605844" y="409.65974" style="stroke: #000000"/>
     <use xlink:href="#mf7a2918b28" x="641.904545" y="411.919481" style="stroke: #000000"/>
     <use xlink:href="#mf7a2918b28" x="656.592857" y="422.088312" style="stroke: #000000"/>
     <use xlink:href="#mf7a2918b28" x="641.904545" y="423.218182" style="stroke: #000000"/>
     <use xlink:href="#mf7a2918b28" x="292.774675" y="425.477922" style="stroke: #000000"/>
     <use xlink:href="#mf7a2918b28" x="760.540909" y="429.997403" style="stroke: #000000"/>
     <use xlink:href="#mf7a2918b28" x="714.216234" y="431.127273" style="stroke: #000000"/>
     <use xlink:href="#mf7a2918b28" x="530.047403" y="434.516883" style="stroke: #000000"/>
     <use xlink:href="#mf7a2918b28" x="481.462987" y="436.776623" style="stroke: #000000"/>
     <use xlink:href="#mf7a2918b28" x="531.177273" y="437.906494" style="stroke: #000000"/>
     <use xlink:href="#mf7a2918b28" x="292.774675" y="439.036364" style="stroke: #000000"/>
     <use xlink:href="#mf7a2918b28" x="733.424026" y="440.166234" style="stroke: #000000"/>
     <use xlink:href="#mf7a2918b28" x="612.527922" y="442.425974" style="stroke: #000000"/>
     <use xlink:href="#mf7a2918b28" x="639.644805" y="443.555844" style="stroke: #000000"/>
     <use xlink:href="#mf7a2918b28" x="632.865584" y="444.685714" style="stroke: #000000"/>
     <use xlink:href="#mf7a2918b28" x="761.670779" y="444.685714" style="stroke: #000000"/>
     <use xlink:href="#mf7a2918b28" x="339.099351" y="445.815584" style="stroke: #000000"/>
     <use xlink:href="#mf7a2918b28" x="657.722727" y="450.335065" style="stroke: #000000"/>
     <use xlink:href="#mf7a2918b28" x="757.151299" y="454.854545" style="stroke: #000000"/>
     <use xlink:href="#mf7a2918b28" x="673.540909" y="459.374026" style="stroke: #000000"/>
     <use xlink:href="#mf7a2918b28" x="849.800649" y="465.023377" style="stroke: #000000"/>
     <use xlink:href="#mf7a2918b28" x="823.813636" y="478.581818" style="stroke: #000000"/>
     <use xlink:href="#mf7a2918b28" x="665.631818" y="479.711688" style="stroke: #000000"/>
     <use xlink:href="#mf7a2918b28" x="849.800649" y="480.841558" style="stroke: #000000"/>
     <use xlink:href="#mf7a2918b28" x="633.995455" y="481.971429" style="stroke: #000000"/>
     <use xlink:href="#mf7a2918b28" x="827.203247" y="481.971429" style="stroke: #000000"/>
     <use xlink:href="#mf7a2918b28" x="417.06039" y="484.231169" style="stroke: #000000"/>
     <use xlink:href="#mf7a2918b28" x="849.800649" y="488.750649" style="stroke: #000000"/>
     <use xlink:href="#mf7a2918b28" x="546.995455" y="491.01039" style="stroke: #000000"/>
     <use xlink:href="#mf7a2918b28" x="480.333117" y="495.52987" style="stroke: #000000"/>
     <use xlink:href="#mf7a2918b28" x="546.995455" y="504.568831" style="stroke: #000000"/>
     <use xlink:href="#mf7a2918b28" x="850.930519" y="506.828571" style="stroke: #000000"/>
     <use xlink:href="#mf7a2918b28" x="615.917532" y="507.958442" style="stroke: #000000"/>
     <use xlink:href="#mf7a2918b28" x="631.735714" y="507.958442" style="stroke: #000000"/>
     <use xlink:href="#mf7a2918b28" x="663.372078" y="510.218182" style="stroke: #000000"/>
     <use xlink:href="#mf7a2918b28" x="691.618831" y="521.516883" style="stroke: #000000"/>
     <use xlink:href="#mf7a2918b28" x="740.203247" y="528.296104" style="stroke: #000000"/>
     <use xlink:href="#mf7a2918b28" x="852.06039" y="530.555844" style="stroke: #000000"/>
     <use xlink:href="#mf7a2918b28" x="741.333117" y="570.101299" style="stroke: #000000"/>
     <use xlink:href="#mf7a2918b28" x="879.177273" y="579.14026" style="stroke: #000000"/>
     <use xlink:href="#mf7a2918b28" x="858.83961" y="581.4" style="stroke: #000000"/>
     <use xlink:href="#mf7a2918b28" x="739.073377" y="583.65974" style="stroke: #000000"/>
     <use xlink:href="#mf7a2918b28" x="588.800649" y="587.049351" style="stroke: #000000"/>
     <use xlink:href="#mf7a2918b28" x="854.32013" y="600.607792" style="stroke: #000000"/>
     <use xlink:href="#mf7a2918b28" x="823.813636" y="605.127273" style="stroke: #000000"/>
    </g>
   </g>
   <g id="text_1">
    <!-- Dhaka map image -&gt; clean node-link extraction -->
    <g transform="translate(16.335 28.7535) scale(0.16 -0.16)">
     <defs>
      <path id="DejaVuSans-Bold-44" d="M 1791 3756 
L 1791 909 
L 2222 909 
Q 2959 909 3348 1275 
Q 3738 1641 3738 2338 
Q 3738 3031 3350 3393 
Q 2963 3756 2222 3756 
L 1791 3756 
z
M 588 4666 
L 1856 4666 
Q 2919 4666 3439 4514 
Q 3959 4363 4331 4000 
Q 4659 3684 4818 3271 
Q 4978 2859 4978 2338 
Q 4978 1809 4818 1395 
Q 4659 981 4331 666 
Q 3956 303 3431 151 
Q 2906 0 1856 0 
L 588 0 
L 588 4666 
z
" transform="scale(0.015625)"/>
      <path id="DejaVuSans-Bold-68" d="M 4056 2131 
L 4056 0 
L 2931 0 
L 2931 347 
L 2931 1625 
Q 2931 2084 2911 2256 
Q 2891 2428 2841 2509 
Q 2775 2619 2662 2680 
Q 2550 2741 2406 2741 
Q 2056 2741 1856 2470 
Q 1656 2200 1656 1722 
L 1656 0 
L 538 0 
L 538 4863 
L 1656 4863 
L 1656 2988 
Q 1909 3294 2193 3439 
Q 2478 3584 2822 3584 
Q 3428 3584 3742 3212 
Q 4056 2841 4056 2131 
z
" transform="scale(0.015625)"/>
      <path id="DejaVuSans-Bold-61" d="M 2106 1575 
Q 1756 1575 1579 1456 
Q 1403 1338 1403 1106 
Q 1403 894 1545 773 
Q 1688 653 1941 653 
Q 2256 653 2472 879 
Q 2688 1106 2688 1447 
L 2688 1575 
L 2106 1575 
z
M 3816 1997 
L 3816 0 
L 2688 0 
L 2688 519 
Q 2463 200 2181 54 
Q 1900 -91 1497 -91 
Q 953 -91 614 226 
Q 275 544 275 1050 
Q 275 1666 698 1953 
Q 1122 2241 2028 2241 
L 2688 2241 
L 2688 2328 
Q 2688 2594 2478 2717 
Q 2269 2841 1825 2841 
Q 1466 2841 1156 2769 
Q 847 2697 581 2553 
L 581 3406 
Q 941 3494 1303 3539 
Q 1666 3584 2028 3584 
Q 2975 3584 3395 3211 
Q 3816 2838 3816 1997 
z
" transform="scale(0.015625)"/>
      <path id="DejaVuSans-Bold-6b" d="M 538 4863 
L 1656 4863 
L 1656 2216 
L 2944 3500 
L 4244 3500 
L 2534 1894 
L 4378 0 
L 3022 0 
L 1656 1459 
L 1656 0 
L 538 0 
L 538 4863 
z
" transform="scale(0.015625)"/>
      <path id="DejaVuSans-Bold-20" transform="scale(0.015625)"/>
      <path id="DejaVuSans-Bold-6d" d="M 3781 2919 
Q 3994 3244 4286 3414 
Q 4578 3584 4928 3584 
Q 5531 3584 5847 3212 
Q 6163 2841 6163 2131 
L 6163 0 
L 5038 0 
L 5038 1825 
Q 5041 1866 5042 1909 
Q 5044 1953 5044 2034 
Q 5044 2406 4934 2573 
Q 4825 2741 4581 2741 
Q 4263 2741 4089 2478 
Q 3916 2216 3909 1719 
L 3909 0 
L 2784 0 
L 2784 1825 
Q 2784 2406 2684 2573 
Q 2584 2741 2328 2741 
Q 2006 2741 1831 2477 
Q 1656 2213 1656 1722 
L 1656 0 
L 531 0 
L 531 3500 
L 1656 3500 
L 1656 2988 
Q 1863 3284 2130 3434 
Q 2397 3584 2719 3584 
Q 3081 3584 3359 3409 
Q 3638 3234 3781 2919 
z
" transform="scale(0.015625)"/>
      <path id="DejaVuSans-Bold-70" d="M 1656 506 
L 1656 -1331 
L 538 -1331 
L 538 3500 
L 1656 3500 
L 1656 2988 
Q 1888 3294 2169 3439 
Q 2450 3584 2816 3584 
Q 3463 3584 3878 3070 
Q 4294 2556 4294 1747 
Q 4294 938 3878 423 
Q 3463 -91 2816 -91 
Q 2450 -91 2169 54 
Q 1888 200 1656 506 
z
M 2400 2772 
Q 2041 2772 1848 2508 
Q 1656 2244 1656 1747 
Q 1656 1250 1848 986 
Q 2041 722 2400 722 
Q 2759 722 2948 984 
Q 3138 1247 3138 1747 
Q 3138 2247 2948 2509 
Q 2759 2772 2400 2772 
z
" transform="scale(0.015625)"/>
      <path id="DejaVuSans-Bold-69" d="M 538 3500 
L 1656 3500 
L 1656 0 
L 538 0 
L 538 3500 
z
M 538 4863 
L 1656 4863 
L 1656 3950 
L 538 3950 
L 538 4863 
z
" transform="scale(0.015625)"/>
      <path id="DejaVuSans-Bold-67" d="M 2919 594 
Q 2688 288 2409 144 
Q 2131 0 1766 0 
Q 1125 0 706 504 
Q 288 1009 288 1791 
Q 288 2575 706 3076 
Q 1125 3578 1766 3578 
Q 2131 3578 2409 3434 
Q 2688 3291 2919 2981 
L 2919 3500 
L 4044 3500 
L 4044 353 
Q 4044 -491 3511 -936 
Q 2978 -1381 1966 -1381 
Q 1638 -1381 1331 -1331 
Q 1025 -1281 716 -1178 
L 716 -306 
Q 1009 -475 1290 -558 
Q 1572 -641 1856 -641 
Q 2406 -641 2662 -400 
Q 2919 -159 2919 353 
L 2919 594 
z
M 2181 2772 
Q 1834 2772 1640 2515 
Q 1447 2259 1447 1791 
Q 1447 1309 1634 1061 
Q 1822 813 2181 813 
Q 2531 813 2725 1069 
Q 2919 1325 2919 1791 
Q 2919 2259 2725 2515 
Q 2531 2772 2181 2772 
z
" transform="scale(0.015625)"/>
      <path id="DejaVuSans-Bold-65" d="M 4031 1759 
L 4031 1441 
L 1416 1441 
Q 1456 1047 1700 850 
Q 1944 653 2381 653 
Q 2734 653 3104 758 
Q 3475 863 3866 1075 
L 3866 213 
Q 3469 63 3072 -14 
Q 2675 -91 2278 -91 
Q 1328 -91 801 392 
Q 275 875 275 1747 
Q 275 2603 792 3093 
Q 1309 3584 2216 3584 
Q 3041 3584 3536 3087 
Q 4031 2591 4031 1759 
z
M 2881 2131 
Q 2881 2450 2695 2645 
Q 2509 2841 2209 2841 
Q 1884 2841 1681 2658 
Q 1478 2475 1428 2131 
L 2881 2131 
z
" transform="scale(0.015625)"/>
      <path id="DejaVuSans-Bold-2d" d="M 347 2297 
L 2309 2297 
L 2309 1388 
L 347 1388 
L 347 2297 
z
" transform="scale(0.015625)"/>
      <path id="DejaVuSans-Bold-3e" d="M 678 3041 
L 678 3822 
L 4684 2375 
L 4684 1638 
L 678 191 
L 678 972 
L 3694 2003 
L 678 3041 
z
" transform="scale(0.015625)"/>
      <path id="DejaVuSans-Bold-63" d="M 3366 3391 
L 3366 2478 
Q 3138 2634 2908 2709 
Q 2678 2784 2431 2784 
Q 1963 2784 1702 2511 
Q 1441 2238 1441 1747 
Q 1441 1256 1702 982 
Q 1963 709 2431 709 
Q 2694 709 2930 787 
Q 3166 866 3366 1019 
L 3366 103 
Q 3103 6 2833 -42 
Q 2563 -91 2291 -91 
Q 1344 -91 809 395 
Q 275 881 275 1747 
Q 275 2613 809 3098 
Q 1344 3584 2291 3584 
Q 2566 3584 2833 3536 
Q 3100 3488 3366 3391 
z
" transform="scale(0.015625)"/>
      <path id="DejaVuSans-Bold-6c" d="M 538 4863 
L 1656 4863 
L 1656 0 
L 538 0 
L 538 4863 
z
" transform="scale(0.015625)"/>
      <path id="DejaVuSans-Bold-6e" d="M 4056 2131 
L 4056 0 
L 2931 0 
L 2931 347 
L 2931 1631 
Q 2931 2084 2911 2256 
Q 2891 2428 2841 2509 
Q 2775 2619 2662 2680 
Q 2550 2741 2406 2741 
Q 2056 2741 1856 2470 
Q 1656 2200 1656 1722 
L 1656 0 
L 538 0 
L 538 3500 
L 1656 3500 
L 1656 2988 
Q 1909 3294 2193 3439 
Q 2478 3584 2822 3584 
Q 3428 3584 3742 3212 
Q 4056 2841 4056 2131 
z
" transform="scale(0.015625)"/>
      <path id="DejaVuSans-Bold-6f" d="M 2203 2784 
Q 1831 2784 1636 2517 
Q 1441 2250 1441 1747 
Q 1441 1244 1636 976 
Q 1831 709 2203 709 
Q 2569 709 2762 976 
Q 2956 1244 2956 1747 
Q 2956 2250 2762 2517 
Q 2569 2784 2203 2784 
z
M 2203 3584 
Q 3106 3584 3614 3096 
Q 4122 2609 4122 1747 
Q 4122 884 3614 396 
Q 3106 -91 2203 -91 
Q 1297 -91 786 396 
Q 275 884 275 1747 
Q 275 2609 786 3096 
Q 1297 3584 2203 3584 
z
" transform="scale(0.015625)"/>
      <path id="DejaVuSans-Bold-64" d="M 2919 2988 
L 2919 4863 
L 4044 4863 
L 4044 0 
L 2919 0 
L 2919 506 
Q 2688 197 2409 53 
Q 2131 -91 1766 -91 
Q 1119 -91 703 423 
Q 288 938 288 1747 
Q 288 2556 703 3070 
Q 1119 3584 1766 3584 
Q 2128 3584 2408 3439 
Q 2688 3294 2919 2988 
z
M 2181 722 
Q 2541 722 2730 984 
Q 2919 1247 2919 1747 
Q 2919 2247 2730 2509 
Q 2541 2772 2181 2772 
Q 1825 2772 1636 2509 
Q 1447 2247 1447 1747 
Q 1447 1247 1636 984 
Q 1825 722 2181 722 
z
" transform="scale(0.015625)"/>
      <path id="DejaVuSans-Bold-78" d="M 1422 1791 
L 159 3500 
L 1344 3500 
L 2059 2463 
L 2784 3500 
L 3969 3500 
L 2706 1797 
L 4031 0 
L 2847 0 
L 2059 1106 
L 1281 0 
L 97 0 
L 1422 1791 
z
" transform="scale(0.015625)"/>
      <path id="DejaVuSans-Bold-74" d="M 1759 4494 
L 1759 3500 
L 2913 3500 
L 2913 2700 
L 1759 2700 
L 1759 1216 
Q 1759 972 1856 886 
Q 1953 800 2241 800 
L 2816 800 
L 2816 0 
L 1856 0 
Q 1194 0 917 276 
Q 641 553 641 1216 
L 641 2700 
L 84 2700 
L 84 3500 
L 641 3500 
L 641 4494 
L 1759 4494 
z
" transform="scale(0.015625)"/>
      <path id="DejaVuSans-Bold-72" d="M 3138 2547 
Q 2991 2616 2845 2648 
Q 2700 2681 2553 2681 
Q 2122 2681 1889 2404 
Q 1656 2128 1656 1613 
L 1656 0 
L 538 0 
L 538 3500 
L 1656 3500 
L 1656 2925 
Q 1872 3269 2151 3426 
Q 2431 3584 2822 3584 
Q 2878 3584 2943 3579 
Q 3009 3575 3134 3559 
L 3138 2547 
z
" transform="scale(0.015625)"/>
     </defs>
     <use xlink:href="#DejaVuSans-Bold-44"/>
     <use xlink:href="#DejaVuSans-Bold-68" transform="translate(83.007812 0)"/>
     <use xlink:href="#DejaVuSans-Bold-61" transform="translate(154.199219 0)"/>
     <use xlink:href="#DejaVuSans-Bold-6b" transform="translate(221.679688 0)"/>
     <use xlink:href="#DejaVuSans-Bold-61" transform="translate(288.183594 0)"/>
     <use xlink:href="#DejaVuSans-Bold-20" transform="translate(355.664062 0)"/>
     <use xlink:href="#DejaVuSans-Bold-6d" transform="translate(390.478516 0)"/>
     <use xlink:href="#DejaVuSans-Bold-61" transform="translate(494.677734 0)"/>
     <use xlink:href="#DejaVuSans-Bold-70" transform="translate(562.158203 0)"/>
     <use xlink:href="#DejaVuSans-Bold-20" transform="translate(633.740234 0)"/>
     <use xlink:href="#DejaVuSans-Bold-69" transform="translate(668.554688 0)"/>
     <use xlink:href="#DejaVuSans-Bold-6d" transform="translate(702.832031 0)"/>
     <use xlink:href="#DejaVuSans-Bold-61" transform="translate(807.03125 0)"/>
     <use xlink:href="#DejaVuSans-Bold-67" transform="translate(874.511719 0)"/>
     <use xlink:href="#DejaVuSans-Bold-65" transform="translate(946.09375 0)"/>
     <use xlink:href="#DejaVuSans-Bold-20" transform="translate(1013.916016 0)"/>
     <use xlink:href="#DejaVuSans-Bold-2d" transform="translate(1048.730469 0)"/>
     <use xlink:href="#DejaVuSans-Bold-3e" transform="translate(1090.234375 0)"/>
     <use xlink:href="#DejaVuSans-Bold-20" transform="translate(1174.023438 0)"/>
     <use xlink:href="#DejaVuSans-Bold-63" transform="translate(1208.837891 0)"/>
     <use xlink:href="#DejaVuSans-Bold-6c" transform="translate(1268.115234 0)"/>
     <use xlink:href="#DejaVuSans-Bold-65" transform="translate(1302.392578 0)"/>
     <use xlink:href="#DejaVuSans-Bold-61" transform="translate(1370.214844 0)"/>
     <use xlink:href="#DejaVuSans-Bold-6e" transform="translate(1437.695312 0)"/>
     <use xlink:href="#DejaVuSans-Bold-20" transform="translate(1508.886719 0)"/>
     <use xlink:href="#DejaVuSans-Bold-6e" transform="translate(1543.701172 0)"/>
     <use xlink:href="#DejaVuSans-Bold-6f" transform="translate(1614.892578 0)"/>
     <use xlink:href="#DejaVuSans-Bold-64" transform="translate(1683.59375 0)"/>
     <use xlink:href="#DejaVuSans-Bold-65" transform="translate(1755.175781 0)"/>
     <use xlink:href="#DejaVuSans-Bold-2d" transform="translate(1822.998047 0)"/>
     <use xlink:href="#DejaVuSans-Bold-6c" transform="translate(1864.501953 0)"/>
     <use xlink:href="#DejaVuSans-Bold-69" transform="translate(1898.779297 0)"/>
     <use xlink:href="#DejaVuSans-Bold-6e" transform="translate(1933.056641 0)"/>
     <use xlink:href="#DejaVuSans-Bold-6b" transform="translate(2004.248047 0)"/>
     <use xlink:href="#DejaVuSans-Bold-20" transform="translate(2070.751953 0)"/>
     <use xlink:href="#DejaVuSans-Bold-65" transform="translate(2105.566406 0)"/>
     <use xlink:href="#DejaVuSans-Bold-78" transform="translate(2173.388672 0)"/>
     <use xlink:href="#DejaVuSans-Bold-74" transform="translate(2237.890625 0)"/>
     <use xlink:href="#DejaVuSans-Bold-72" transform="translate(2285.693359 0)"/>
     <use xlink:href="#DejaVuSans-Bold-61" transform="translate(2335.009766 0)"/>
     <use xlink:href="#DejaVuSans-Bold-63" transform="translate(2402.490234 0)"/>
     <use xlink:href="#DejaVuSans-Bold-74" transform="translate(2461.767578 0)"/>
     <use xlink:href="#DejaVuSans-Bold-69" transform="translate(2509.570312 0)"/>
     <use xlink:href="#DejaVuSans-Bold-6f" transform="translate(2543.847656 0)"/>
     <use xlink:href="#DejaVuSans-Bold-6e" transform="translate(2612.548828 0)"/>
    </g>
   </g>
   <g id="text_2">
    <!-- Graph is image-derived from the provided screenshot; nodes placed at extracted intersections/endpoints. -->
    <g style="fill: #444444" transform="translate(16.335 47.237794) scale(0.09 -0.09)">
     <defs>
      <path id="DejaVuSans-47" d="M 3809 666 
L 3809 1919 
L 2778 1919 
L 2778 2438 
L 4434 2438 
L 4434 434 
Q 4069 175 3628 42 
Q 3188 -91 2688 -91 
Q 1594 -91 976 548 
Q 359 1188 359 2328 
Q 359 3472 976 4111 
Q 1594 4750 2688 4750 
Q 3144 4750 3555 4637 
Q 3966 4525 4313 4306 
L 4313 3634 
Q 3963 3931 3569 4081 
Q 3175 4231 2741 4231 
Q 1884 4231 1454 3753 
Q 1025 3275 1025 2328 
Q 1025 1384 1454 906 
Q 1884 428 2741 428 
Q 3075 428 3337 486 
Q 3600 544 3809 666 
z
" transform="scale(0.015625)"/>
      <path id="DejaVuSans-72" d="M 2631 2963 
Q 2534 3019 2420 3045 
Q 2306 3072 2169 3072 
Q 1681 3072 1420 2755 
Q 1159 2438 1159 1844 
L 1159 0 
L 581 0 
L 581 3500 
L 1159 3500 
L 1159 2956 
Q 1341 3275 1631 3429 
Q 1922 3584 2338 3584 
Q 2397 3584 2469 3576 
Q 2541 3569 2628 3553 
L 2631 2963 
z
" transform="scale(0.015625)"/>
      <path id="DejaVuSans-61" d="M 2194 1759 
Q 1497 1759 1228 1600 
Q 959 1441 959 1056 
Q 959 750 1161 570 
Q 1363 391 1709 391 
Q 2188 391 2477 730 
Q 2766 1069 2766 1631 
L 2766 1759 
L 2194 1759 
z
M 3341 1997 
L 3341 0 
L 2766 0 
L 2766 531 
Q 2569 213 2275 61 
Q 1981 -91 1556 -91 
Q 1019 -91 701 211 
Q 384 513 384 1019 
Q 384 1609 779 1909 
Q 1175 2209 1959 2209 
L 2766 2209 
L 2766 2266 
Q 2766 2663 2505 2880 
Q 2244 3097 1772 3097 
Q 1472 3097 1187 3025 
Q 903 2953 641 2809 
L 641 3341 
Q 956 3463 1253 3523 
Q 1550 3584 1831 3584 
Q 2591 3584 2966 3190 
Q 3341 2797 3341 1997 
z
" transform="scale(0.015625)"/>
      <path id="DejaVuSans-70" d="M 1159 525 
L 1159 -1331 
L 581 -1331 
L 581 3500 
L 1159 3500 
L 1159 2969 
Q 1341 3281 1617 3432 
Q 1894 3584 2278 3584 
Q 2916 3584 3314 3078 
Q 3713 2572 3713 1747 
Q 3713 922 3314 415 
Q 2916 -91 2278 -91 
Q 1894 -91 1617 61 
Q 1341 213 1159 525 
z
M 3116 1747 
Q 3116 2381 2855 2742 
Q 2594 3103 2138 3103 
Q 1681 3103 1420 2742 
Q 1159 2381 1159 1747 
Q 1159 1113 1420 752 
Q 1681 391 2138 391 
Q 2594 391 2855 752 
Q 3116 1113 3116 1747 
z
" transform="scale(0.015625)"/>
      <path id="DejaVuSans-68" d="M 3513 2113 
L 3513 0 
L 2938 0 
L 2938 2094 
Q 2938 2591 2744 2837 
Q 2550 3084 2163 3084 
Q 1697 3084 1428 2787 
Q 1159 2491 1159 1978 
L 1159 0 
L 581 0 
L 581 4863 
L 1159 4863 
L 1159 2956 
Q 1366 3272 1645 3428 
Q 1925 3584 2291 3584 
Q 2894 3584 3203 3211 
Q 3513 2838 3513 2113 
z
" transform="scale(0.015625)"/>
      <path id="DejaVuSans-20" transform="scale(0.015625)"/>
      <path id="DejaVuSans-69" d="M 603 3500 
L 1178 3500 
L 1178 0 
L 603 0 
L 603 3500 
z
M 603 4863 
L 1178 4863 
L 1178 4134 
L 603 4134 
L 603 4863 
z
" transform="scale(0.015625)"/>
      <path id="DejaVuSans-73" d="M 2834 3397 
L 2834 2853 
Q 2591 2978 2328 3040 
Q 2066 3103 1784 3103 
Q 1356 3103 1142 2972 
Q 928 2841 928 2578 
Q 928 2378 1081 2264 
Q 1234 2150 1697 2047 
L 1894 2003 
Q 2506 1872 2764 1633 
Q 3022 1394 3022 966 
Q 3022 478 2636 193 
Q 2250 -91 1575 -91 
Q 1294 -91 989 -36 
Q 684 19 347 128 
L 347 722 
Q 666 556 975 473 
Q 1284 391 1588 391 
Q 1994 391 2212 530 
Q 2431 669 2431 922 
Q 2431 1156 2273 1281 
Q 2116 1406 1581 1522 
L 1381 1569 
Q 847 1681 609 1914 
Q 372 2147 372 2553 
Q 372 3047 722 3315 
Q 1072 3584 1716 3584 
Q 2034 3584 2315 3537 
Q 2597 3491 2834 3397 
z
" transform="scale(0.015625)"/>
      <path id="DejaVuSans-6d" d="M 3328 2828 
Q 3544 3216 3844 3400 
Q 4144 3584 4550 3584 
Q 5097 3584 5394 3201 
Q 5691 2819 5691 2113 
L 5691 0 
L 5113 0 
L 5113 2094 
Q 5113 2597 4934 2840 
Q 4756 3084 4391 3084 
Q 3944 3084 3684 2787 
Q 3425 2491 3425 1978 
L 3425 0 
L 2847 0 
L 2847 2094 
Q 2847 2600 2669 2842 
Q 2491 3084 2119 3084 
Q 1678 3084 1418 2786 
Q 1159 2488 1159 1978 
L 1159 0 
L 581 0 
L 581 3500 
L 1159 3500 
L 1159 2956 
Q 1356 3278 1631 3431 
Q 1906 3584 2284 3584 
Q 2666 3584 2933 3390 
Q 3200 3197 3328 2828 
z
" transform="scale(0.015625)"/>
      <path id="DejaVuSans-67" d="M 2906 1791 
Q 2906 2416 2648 2759 
Q 2391 3103 1925 3103 
Q 1463 3103 1205 2759 
Q 947 2416 947 1791 
Q 947 1169 1205 825 
Q 1463 481 1925 481 
Q 2391 481 2648 825 
Q 2906 1169 2906 1791 
z
M 3481 434 
Q 3481 -459 3084 -895 
Q 2688 -1331 1869 -1331 
Q 1566 -1331 1297 -1286 
Q 1028 -1241 775 -1147 
L 775 -588 
Q 1028 -725 1275 -790 
Q 1522 -856 1778 -856 
Q 2344 -856 2625 -561 
Q 2906 -266 2906 331 
L 2906 616 
Q 2728 306 2450 153 
Q 2172 0 1784 0 
Q 1141 0 747 490 
Q 353 981 353 1791 
Q 353 2603 747 3093 
Q 1141 3584 1784 3584 
Q 2172 3584 2450 3431 
Q 2728 3278 2906 2969 
L 2906 3500 
L 3481 3500 
L 3481 434 
z
" transform="scale(0.015625)"/>
      <path id="DejaVuSans-65" d="M 3597 1894 
L 3597 1613 
L 953 1613 
Q 991 1019 1311 708 
Q 1631 397 2203 397 
Q 2534 397 2845 478 
Q 3156 559 3463 722 
L 3463 178 
Q 3153 47 2828 -22 
Q 2503 -91 2169 -91 
Q 1331 -91 842 396 
Q 353 884 353 1716 
Q 353 2575 817 3079 
Q 1281 3584 2069 3584 
Q 2775 3584 3186 3129 
Q 3597 2675 3597 1894 
z
M 3022 2063 
Q 3016 2534 2758 2815 
Q 2500 3097 2075 3097 
Q 1594 3097 1305 2825 
Q 1016 2553 972 2059 
L 3022 2063 
z
" transform="scale(0.015625)"/>
      <path id="DejaVuSans-2d" d="M 313 2009 
L 1997 2009 
L 1997 1497 
L 313 1497 
L 313 2009 
z
" transform="scale(0.015625)"/>
      <path id="DejaVuSans-64" d="M 2906 2969 
L 2906 4863 
L 3481 4863 
L 3481 0 
L 2906 0 
L 2906 525 
Q 2725 213 2448 61 
Q 2172 -91 1784 -91 
Q 1150 -91 751 415 
Q 353 922 353 1747 
Q 353 2572 751 3078 
Q 1150 3584 1784 3584 
Q 2172 3584 2448 3432 
Q 2725 3281 2906 2969 
z
M 947 1747 
Q 947 1113 1208 752 
Q 1469 391 1925 391 
Q 2381 391 2643 752 
Q 2906 1113 2906 1747 
Q 2906 2381 2643 2742 
Q 2381 3103 1925 3103 
Q 1469 3103 1208 2742 
Q 947 2381 947 1747 
z
" transform="scale(0.015625)"/>
      <path id="DejaVuSans-76" d="M 191 3500 
L 800 3500 
L 1894 563 
L 2988 3500 
L 3597 3500 
L 2284 0 
L 1503 0 
L 191 3500 
z
" transform="scale(0.015625)"/>
      <path id="DejaVuSans-66" d="M 2375 4863 
L 2375 4384 
L 1825 4384 
Q 1516 4384 1395 4259 
Q 1275 4134 1275 3809 
L 1275 3500 
L 2222 3500 
L 2222 3053 
L 1275 3053 
L 1275 0 
L 697 0 
L 697 3053 
L 147 3053 
L 147 3500 
L 697 3500 
L 697 3744 
Q 697 4328 969 4595 
Q 1241 4863 1831 4863 
L 2375 4863 
z
" transform="scale(0.015625)"/>
      <path id="DejaVuSans-6f" d="M 1959 3097 
Q 1497 3097 1228 2736 
Q 959 2375 959 1747 
Q 959 1119 1226 758 
Q 1494 397 1959 397 
Q 2419 397 2687 759 
Q 2956 1122 2956 1747 
Q 2956 2369 2687 2733 
Q 2419 3097 1959 3097 
z
M 1959 3584 
Q 2709 3584 3137 3096 
Q 3566 2609 3566 1747 
Q 3566 888 3137 398 
Q 2709 -91 1959 -91 
Q 1206 -91 779 398 
Q 353 888 353 1747 
Q 353 2609 779 3096 
Q 1206 3584 1959 3584 
z
" transform="scale(0.015625)"/>
      <path id="DejaVuSans-74" d="M 1172 4494 
L 1172 3500 
L 2356 3500 
L 2356 3053 
L 1172 3053 
L 1172 1153 
Q 1172 725 1289 603 
Q 1406 481 1766 481 
L 2356 481 
L 2356 0 
L 1766 0 
Q 1100 0 847 248 
Q 594 497 594 1153 
L 594 3053 
L 172 3053 
L 172 3500 
L 594 3500 
L 594 4494 
L 1172 4494 
z
" transform="scale(0.015625)"/>
      <path id="DejaVuSans-63" d="M 3122 3366 
L 3122 2828 
Q 2878 2963 2633 3030 
Q 2388 3097 2138 3097 
Q 1578 3097 1268 2742 
Q 959 2388 959 1747 
Q 959 1106 1268 751 
Q 1578 397 2138 397 
Q 2388 397 2633 464 
Q 2878 531 3122 666 
L 3122 134 
Q 2881 22 2623 -34 
Q 2366 -91 2075 -91 
Q 1284 -91 818 406 
Q 353 903 353 1747 
Q 353 2603 823 3093 
Q 1294 3584 2113 3584 
Q 2378 3584 2631 3529 
Q 2884 3475 3122 3366 
z
" transform="scale(0.015625)"/>
      <path id="DejaVuSans-6e" d="M 3513 2113 
L 3513 0 
L 2938 0 
L 2938 2094 
Q 2938 2591 2744 2837 
Q 2550 3084 2163 3084 
Q 1697 3084 1428 2787 
Q 1159 2491 1159 1978 
L 1159 0 
L 581 0 
L 581 3500 
L 1159 3500 
L 1159 2956 
Q 1366 3272 1645 3428 
Q 1925 3584 2291 3584 
Q 2894 3584 3203 3211 
Q 3513 2838 3513 2113 
z
" transform="scale(0.015625)"/>
      <path id="DejaVuSans-3b" d="M 750 3309 
L 1409 3309 
L 1409 2516 
L 750 2516 
L 750 3309 
z
M 750 794 
L 1409 794 
L 1409 256 
L 897 -744 
L 494 -744 
L 750 256 
L 750 794 
z
" transform="scale(0.015625)"/>
      <path id="DejaVuSans-6c" d="M 603 4863 
L 1178 4863 
L 1178 0 
L 603 0 
L 603 4863 
z
" transform="scale(0.015625)"/>
      <path id="DejaVuSans-78" d="M 3513 3500 
L 2247 1797 
L 3578 0 
L 2900 0 
L 1881 1375 
L 863 0 
L 184 0 
L 1544 1831 
L 300 3500 
L 978 3500 
L 1906 2253 
L 2834 3500 
L 3513 3500 
z
" transform="scale(0.015625)"/>
      <path id="DejaVuSans-2f" d="M 1625 4666 
L 2156 4666 
L 531 -594 
L 0 -594 
L 1625 4666 
z
" transform="scale(0.015625)"/>
      <path id="DejaVuSans-2e" d="M 684 794 
L 1344 794 
L 1344 0 
L 684 0 
L 684 794 
z
" transform="scale(0.015625)"/>
     </defs>
     <use xlink:href="#DejaVuSans-47"/>
     <use xlink:href="#DejaVuSans-72" transform="translate(77.490234 0)"/>
     <use xlink:href="#DejaVuSans-61" transform="translate(118.603516 0)"/>
     <use xlink:href="#DejaVuSans-70" transform="translate(179.882812 0)"/>
     <use xlink:href="#DejaVuSans-68" transform="translate(243.359375 0)"/>
     <use xlink:href="#DejaVuSans-20" transform="translate(306.738281 0)"/>
     <use xlink:href="#DejaVuSans-69" transform="translate(338.525391 0)"/>
     <use xlink:href="#DejaVuSans-73" transform="translate(366.308594 0)"/>
     <use xlink:href="#DejaVuSans-20" transform="translate(418.408203 0)"/>
     <use xlink:href="#DejaVuSans-69" transform="translate(450.195312 0)"/>
     <use xlink:href="#DejaVuSans-6d" transform="translate(477.978516 0)"/>
     <use xlink:href="#DejaVuSans-61" transform="translate(575.390625 0)"/>
     <use xlink:href="#DejaVuSans-67" transform="translate(636.669922 0)"/>
     <use xlink:href="#DejaVuSans-65" transform="translate(700.146484 0)"/>
     <use xlink:href="#DejaVuSans-2d" transform="translate(761.669922 0)"/>
     <use xlink:href="#DejaVuSans-64" transform="translate(797.753906 0)"/>
     <use xlink:href="#DejaVuSans-65" transform="translate(861.230469 0)"/>
     <use xlink:href="#DejaVuSans-72" transform="translate(922.753906 0)"/>
     <use xlink:href="#DejaVuSans-69" transform="translate(963.867188 0)"/>
     <use xlink:href="#DejaVuSans-76" transform="translate(991.650391 0)"/>
     <use xlink:href="#DejaVuSans-65" transform="translate(1050.830078 0)"/>
     <use xlink:href="#DejaVuSans-64" transform="translate(1112.353516 0)"/>
     <use xlink:href="#DejaVuSans-20" transform="translate(1175.830078 0)"/>
     <use xlink:href="#DejaVuSans-66" transform="translate(1207.617188 0)"/>
     <use xlink:href="#DejaVuSans-72" transform="translate(1242.822266 0)"/>
     <use xlink:href="#DejaVuSans-6f" transform="translate(1281.685547 0)"/>
     <use xlink:href="#DejaVuSans-6d" transform="translate(1342.867188 0)"/>
     <use xlink:href="#DejaVuSans-20" transform="translate(1440.279297 0)"/>
     <use xlink:href="#DejaVuSans-74" transform="translate(1472.066406 0)"/>
     <use xlink:href="#DejaVuSans-68" transform="translate(1511.275391 0)"/>
     <use xlink:href="#DejaVuSans-65" transform="translate(1574.654297 0)"/>
     <use xlink:href="#DejaVuSans-20" transform="translate(1636.177734 0)"/>
     <use xlink:href="#DejaVuSans-70" transform="translate(1667.964844 0)"/>
     <use xlink:href="#DejaVuSans-72" transform="translate(1731.441406 0)"/>
     <use xlink:href="#DejaVuSans-6f" transform="translate(1770.304688 0)"/>
     <use xlink:href="#DejaVuSans-76" transform="translate(1831.486328 0)"/>
     <use xlink:href="#DejaVuSans-69" transform="translate(1890.666016 0)"/>
     <use xlink:href="#DejaVuSans-64" transform="translate(1918.449219 0)"/>
     <use xlink:href="#DejaVuSans-65" transform="translate(1981.925781 0)"/>
     <use xlink:href="#DejaVuSans-64" transform="translate(2043.449219 0)"/>
     <use xlink:href="#DejaVuSans-20" transform="translate(2106.925781 0)"/>
     <use xlink:href="#DejaVuSans-73" transform="translate(2138.712891 0)"/>
     <use xlink:href="#DejaVuSans-63" transform="translate(2190.8125 0)"/>
     <use xlink:href="#DejaVuSans-72" transform="translate(2245.792969 0)"/>
     <use xlink:href="#DejaVuSans-65" transform="translate(2284.65625 0)"/>
     <use xlink:href="#DejaVuSans-65" transform="translate(2346.179688 0)"/>
     <use xlink:href="#DejaVuSans-6e" transform="translate(2407.703125 0)"/>
     <use xlink:href="#DejaVuSans-73" transform="translate(2471.082031 0)"/>
     <use xlink:href="#DejaVuSans-68" transform="translate(2523.181641 0)"/>
     <use xlink:href="#DejaVuSans-6f" transform="translate(2586.560547 0)"/>
     <use xlink:href="#DejaVuSans-74" transform="translate(2647.742188 0)"/>
     <use xlink:href="#DejaVuSans-3b" transform="translate(2686.951172 0)"/>
     <use xlink:href="#DejaVuSans-20" transform="translate(2720.642578 0)"/>
     <use xlink:href="#DejaVuSans-6e" transform="translate(2752.429688 0)"/>
     <use xlink:href="#DejaVuSans-6f" transform="translate(2815.808594 0)"/>
     <use xlink:href="#DejaVuSans-64" transform="translate(2876.990234 0)"/>
     <use xlink:href="#DejaVuSans-65" transform="translate(2940.466797 0)"/>
     <use xlink:href="#DejaVuSans-73" transform="translate(3001.990234 0)"/>
     <use xlink:href="#DejaVuSans-20" transform="translate(3054.089844 0)"/>
     <use xlink:href="#DejaVuSans-70" transform="translate(3085.876953 0)"/>
     <use xlink:href="#DejaVuSans-6c" transform="translate(3149.353516 0)"/>
     <use xlink:href="#DejaVuSans-61" transform="translate(3177.136719 0)"/>
     <use xlink:href="#DejaVuSans-63" transform="translate(3238.416016 0)"/>
     <use xlink:href="#DejaVuSans-65" transform="translate(3293.396484 0)"/>
     <use xlink:href="#DejaVuSans-64" transform="translate(3354.919922 0)"/>
     <use xlink:href="#DejaVuSans-20" transform="translate(3418.396484 0)"/>
     <use xlink:href="#DejaVuSans-61" transform="translate(3450.183594 0)"/>
     <use xlink:href="#DejaVuSans-74" transform="translate(3511.462891 0)"/>
     <use xlink:href="#DejaVuSans-20" transform="translate(3550.671875 0)"/>
     <use xlink:href="#DejaVuSans-65" transform="translate(3582.458984 0)"/>
     <use xlink:href="#DejaVuSans-78" transform="translate(3642.232422 0)"/>
     <use xlink:href="#DejaVuSans-74" transform="translate(3701.412109 0)"/>
     <use xlink:href="#DejaVuSans-72" transform="translate(3740.621094 0)"/>
     <use xlink:href="#DejaVuSans-61" transform="translate(3781.734375 0)"/>
     <use xlink:href="#DejaVuSans-63" transform="translate(3843.013672 0)"/>
     <use xlink:href="#DejaVuSans-74" transform="translate(3897.994141 0)"/>
     <use xlink:href="#DejaVuSans-65" transform="translate(3937.203125 0)"/>
     <use xlink:href="#DejaVuSans-64" transform="translate(3998.726562 0)"/>
     <use xlink:href="#DejaVuSans-20" transform="translate(4062.203125 0)"/>
     <use xlink:href="#DejaVuSans-69" transform="translate(4093.990234 0)"/>
     <use xlink:href="#DejaVuSans-6e" transform="translate(4121.773438 0)"/>
     <use xlink:href="#DejaVuSans-74" transform="translate(4185.152344 0)"/>
     <use xlink:href="#DejaVuSans-65" transform="translate(4224.361328 0)"/>
     <use xlink:href="#DejaVuSans-72" transform="translate(4285.884766 0)"/>
     <use xlink:href="#DejaVuSans-73" transform="translate(4326.998047 0)"/>
     <use xlink:href="#DejaVuSans-65" transform="translate(4379.097656 0)"/>
     <use xlink:href="#DejaVuSans-63" transform="translate(4440.621094 0)"/>
     <use xlink:href="#DejaVuSans-74" transform="translate(4495.601562 0)"/>
     <use xlink:href="#DejaVuSans-69" transform="translate(4534.810547 0)"/>
     <use xlink:href="#DejaVuSans-6f" transform="translate(4562.59375 0)"/>
     <use xlink:href="#DejaVuSans-6e" transform="translate(4623.775391 0)"/>
     <use xlink:href="#DejaVuSans-73" transform="translate(4687.154297 0)"/>
     <use xlink:href="#DejaVuSans-2f" transform="translate(4739.253906 0)"/>
     <use xlink:href="#DejaVuSans-65" transform="translate(4772.945312 0)"/>
     <use xlink:href="#DejaVuSans-6e" transform="translate(4834.46875 0)"/>
     <use xlink:href="#DejaVuSans-64" transform="translate(4897.847656 0)"/>
     <use xlink:href="#DejaVuSans-70" transform="translate(4961.324219 0)"/>
     <use xlink:href="#DejaVuSans-6f" transform="translate(5024.800781 0)"/>
     <use xlink:href="#DejaVuSans-69" transform="translate(5085.982422 0)"/>
     <use xlink:href="#DejaVuSans-6e" transform="translate(5113.765625 0)"/>
     <use xlink:href="#DejaVuSans-74" transform="translate(5177.144531 0)"/>
     <use xlink:href="#DejaVuSans-73" transform="translate(5216.353516 0)"/>
     <use xlink:href="#DejaVuSans-2e" transform="translate(5268.453125 0)"/>
    </g>
   </g>
   <g id="legend_1">
    <g id="patch_2">
     <path d="M 14.2 628.6 
L 188.78125 628.6 
Q 190.78125 628.6 190.78125 626.6 
L 190.78125 554.209375 
Q 190.78125 552.209375 188.78125 552.209375 
L 14.2 552.209375 
Q 12.2 552.209375 12.2 554.209375 
L 12.2 626.6 
Q 12.2 628.6 14.2 628.6 
z
" style="fill: #ffffff; stroke: #cccccc; stroke-linejoin: miter"/>
    </g>
    <g id="text_3">
     <!-- Route class from visible line width -->
     <g transform="translate(16.2 563.807812) scale(0.1 -0.1)">
      <defs>
       <path id="DejaVuSans-52" d="M 2841 2188 
Q 3044 2119 3236 1894 
Q 3428 1669 3622 1275 
L 4263 0 
L 3584 0 
L 2988 1197 
Q 2756 1666 2539 1819 
Q 2322 1972 1947 1972 
L 1259 1972 
L 1259 0 
L 628 0 
L 628 4666 
L 2053 4666 
Q 2853 4666 3247 4331 
Q 3641 3997 3641 3322 
Q 3641 2881 3436 2590 
Q 3231 2300 2841 2188 
z
M 1259 4147 
L 1259 2491 
L 2053 2491 
Q 2509 2491 2742 2702 
Q 2975 2913 2975 3322 
Q 2975 3731 2742 3939 
Q 2509 4147 2053 4147 
L 1259 4147 
z
" transform="scale(0.015625)"/>
       <path id="DejaVuSans-75" d="M 544 1381 
L 544 3500 
L 1119 3500 
L 1119 1403 
Q 1119 906 1312 657 
Q 1506 409 1894 409 
Q 2359 409 2629 706 
Q 2900 1003 2900 1516 
L 2900 3500 
L 3475 3500 
L 3475 0 
L 2900 0 
L 2900 538 
Q 2691 219 2414 64 
Q 2138 -91 1772 -91 
Q 1169 -91 856 284 
Q 544 659 544 1381 
z
M 1991 3584 
L 1991 3584 
z
" transform="scale(0.015625)"/>
       <path id="DejaVuSans-62" d="M 3116 1747 
Q 3116 2381 2855 2742 
Q 2594 3103 2138 3103 
Q 1681 3103 1420 2742 
Q 1159 2381 1159 1747 
Q 1159 1113 1420 752 
Q 1681 391 2138 391 
Q 2594 391 2855 752 
Q 3116 1113 3116 1747 
z
M 1159 2969 
Q 1341 3281 1617 3432 
Q 1894 3584 2278 3584 
Q 2916 3584 3314 3078 
Q 3713 2572 3713 1747 
Q 3713 922 3314 415 
Q 2916 -91 2278 -91 
Q 1894 -91 1617 61 
Q 1341 213 1159 525 
L 1159 0 
L 581 0 
L 581 4863 
L 1159 4863 
L 1159 2969 
z
" transform="scale(0.015625)"/>
       <path id="DejaVuSans-77" d="M 269 3500 
L 844 3500 
L 1563 769 
L 2278 3500 
L 2956 3500 
L 3675 769 
L 4391 3500 
L 4966 3500 
L 4050 0 
L 3372 0 
L 2619 2869 
L 1863 0 
L 1184 0 
L 269 3500 
z
" transform="scale(0.015625)"/>
      </defs>
      <use xlink:href="#DejaVuSans-52"/>
      <use xlink:href="#DejaVuSans-6f" transform="translate(64.982422 0)"/>
      <use xlink:href="#DejaVuSans-75" transform="translate(126.164062 0)"/>
      <use xlink:href="#DejaVuSans-74" transform="translate(189.542969 0)"/>
      <use xlink:href="#DejaVuSans-65" transform="translate(228.751953 0)"/>
      <use xlink:href="#DejaVuSans-20" transform="translate(290.275391 0)"/>
      <use xlink:href="#DejaVuSans-63" transform="translate(322.0625 0)"/>
      <use xlink:href="#DejaVuSans-6c" transform="translate(377.042969 0)"/>
      <use xlink:href="#DejaVuSans-61" transform="translate(404.826172 0)"/>
      <use xlink:href="#DejaVuSans-73" transform="translate(466.105469 0)"/>
      <use xlink:href="#DejaVuSans-73" transform="translate(518.205078 0)"/>
      <use xlink:href="#DejaVuSans-20" transform="translate(570.304688 0)"/>
      <use xlink:href="#DejaVuSans-66" transform="translate(602.091797 0)"/>
      <use xlink:href="#DejaVuSans-72" transform="translate(637.296875 0)"/>
      <use xlink:href="#DejaVuSans-6f" transform="translate(676.160156 0)"/>
      <use xlink:href="#DejaVuSans-6d" transform="translate(737.341797 0)"/>
      <use xlink:href="#DejaVuSans-20" transform="translate(834.753906 0)"/>
      <use xlink:href="#DejaVuSans-76" transform="translate(866.541016 0)"/>
      <use xlink:href="#DejaVuSans-69" transform="translate(925.720703 0)"/>
      <use xlink:href="#DejaVuSans-73" transform="translate(953.503906 0)"/>
      <use xlink:href="#DejaVuSans-69" transform="translate(1005.603516 0)"/>
      <use xlink:href="#DejaVuSans-62" transform="translate(1033.386719 0)"/>
      <use xlink:href="#DejaVuSans-6c" transform="translate(1096.863281 0)"/>
      <use xlink:href="#DejaVuSans-65" transform="translate(1124.646484 0)"/>
      <use xlink:href="#DejaVuSans-20" transform="translate(1186.169922 0)"/>
      <use xlink:href="#DejaVuSans-6c" transform="translate(1217.957031 0)"/>
      <use xlink:href="#DejaVuSans-69" transform="translate(1245.740234 0)"/>
      <use xlink:href="#DejaVuSans-6e" transform="translate(1273.523438 0)"/>
      <use xlink:href="#DejaVuSans-65" transform="translate(1336.902344 0)"/>
      <use xlink:href="#DejaVuSans-20" transform="translate(1398.425781 0)"/>
      <use xlink:href="#DejaVuSans-77" transform="translate(1430.212891 0)"/>
      <use xlink:href="#DejaVuSans-69" transform="translate(1512 0)"/>
      <use xlink:href="#DejaVuSans-64" transform="translate(1539.783203 0)"/>
      <use xlink:href="#DejaVuSans-74" transform="translate(1603.259766 0)"/>
      <use xlink:href="#DejaVuSans-68" transform="translate(1642.46875 0)"/>
     </g>
    </g>
    <g id="line2d_132">
     <path d="M 46.33125 574.985937 
L 56.33125 574.985937 
L 66.33125 574.985937 
" style="fill: none; stroke: #000000; stroke-width: 4.8; stroke-linecap: square"/>
    </g>
    <g id="text_4">
     <!-- Main (&gt;6.5 px) -->
     <g transform="translate(74.33125 578.485937) scale(0.1 -0.1)">
      <defs>
       <path id="DejaVuSans-4d" d="M 628 4666 
L 1569 4666 
L 2759 1491 
L 3956 4666 
L 4897 4666 
L 4897 0 
L 4281 0 
L 4281 4097 
L 3078 897 
L 2444 897 
L 1241 4097 
L 1241 0 
L 628 0 
L 628 4666 
z
" transform="scale(0.015625)"/>
       <path id="DejaVuSans-28" d="M 1984 4856 
Q 1566 4138 1362 3434 
Q 1159 2731 1159 2009 
Q 1159 1288 1364 580 
Q 1569 -128 1984 -844 
L 1484 -844 
Q 1016 -109 783 600 
Q 550 1309 550 2009 
Q 550 2706 781 3412 
Q 1013 4119 1484 4856 
L 1984 4856 
z
" transform="scale(0.015625)"/>
       <path id="DejaVuSans-3e" d="M 678 3150 
L 678 3719 
L 4684 2266 
L 4684 1747 
L 678 294 
L 678 863 
L 3897 2003 
L 678 3150 
z
" transform="scale(0.015625)"/>
       <path id="DejaVuSans-36" d="M 2113 2584 
Q 1688 2584 1439 2293 
Q 1191 2003 1191 1497 
Q 1191 994 1439 701 
Q 1688 409 2113 409 
Q 2538 409 2786 701 
Q 3034 994 3034 1497 
Q 3034 2003 2786 2293 
Q 2538 2584 2113 2584 
z
M 3366 4563 
L 3366 3988 
Q 3128 4100 2886 4159 
Q 2644 4219 2406 4219 
Q 1781 4219 1451 3797 
Q 1122 3375 1075 2522 
Q 1259 2794 1537 2939 
Q 1816 3084 2150 3084 
Q 2853 3084 3261 2657 
Q 3669 2231 3669 1497 
Q 3669 778 3244 343 
Q 2819 -91 2113 -91 
Q 1303 -91 875 529 
Q 447 1150 447 2328 
Q 447 3434 972 4092 
Q 1497 4750 2381 4750 
Q 2619 4750 2861 4703 
Q 3103 4656 3366 4563 
z
" transform="scale(0.015625)"/>
       <path id="DejaVuSans-35" d="M 691 4666 
L 3169 4666 
L 3169 4134 
L 1269 4134 
L 1269 2991 
Q 1406 3038 1543 3061 
Q 1681 3084 1819 3084 
Q 2600 3084 3056 2656 
Q 3513 2228 3513 1497 
Q 3513 744 3044 326 
Q 2575 -91 1722 -91 
Q 1428 -91 1123 -41 
Q 819 9 494 109 
L 494 744 
Q 775 591 1075 516 
Q 1375 441 1709 441 
Q 2250 441 2565 725 
Q 2881 1009 2881 1497 
Q 2881 1984 2565 2268 
Q 2250 2553 1709 2553 
Q 1456 2553 1204 2497 
Q 953 2441 691 2322 
L 691 4666 
z
" transform="scale(0.015625)"/>
       <path id="DejaVuSans-29" d="M 513 4856 
L 1013 4856 
Q 1481 4119 1714 3412 
Q 1947 2706 1947 2009 
Q 1947 1309 1714 600 
Q 1481 -109 1013 -844 
L 513 -844 
Q 928 -128 1133 580 
Q 1338 1288 1338 2009 
Q 1338 2731 1133 3434 
Q 928 4138 513 4856 
z
" transform="scale(0.015625)"/>
      </defs>
      <use xlink:href="#DejaVuSans-4d"/>
      <use xlink:href="#DejaVuSans-61" transform="translate(86.279297 0)"/>
      <use xlink:href="#DejaVuSans-69" transform="translate(147.558594 0)"/>
      <use xlink:href="#DejaVuSans-6e" transform="translate(175.341797 0)"/>
      <use xlink:href="#DejaVuSans-20" transform="translate(238.720703 0)"/>
      <use xlink:href="#DejaVuSans-28" transform="translate(270.507812 0)"/>
      <use xlink:href="#DejaVuSans-3e" transform="translate(309.521484 0)"/>
      <use xlink:href="#DejaVuSans-36" transform="translate(393.310547 0)"/>
      <use xlink:href="#DejaVuSans-2e" transform="translate(456.933594 0)"/>
      <use xlink:href="#DejaVuSans-35" transform="translate(488.720703 0)"/>
      <use xlink:href="#DejaVuSans-20" transform="translate(552.34375 0)"/>
      <use xlink:href="#DejaVuSans-70" transform="translate(584.130859 0)"/>
      <use xlink:href="#DejaVuSans-78" transform="translate(647.607422 0)"/>
      <use xlink:href="#DejaVuSans-29" transform="translate(706.787109 0)"/>
     </g>
    </g>
    <g id="line2d_133">
     <path d="M 46.33125 589.664062 
L 56.33125 589.664062 
L 66.33125 589.664062 
" style="fill: none; stroke: #3f3f3f; stroke-width: 3; stroke-linecap: square"/>
    </g>
    <g id="text_5">
     <!-- Link (4.5-6.5 px) -->
     <g transform="translate(74.33125 593.164062) scale(0.1 -0.1)">
      <defs>
       <path id="DejaVuSans-4c" d="M 628 4666 
L 1259 4666 
L 1259 531 
L 3531 531 
L 3531 0 
L 628 0 
L 628 4666 
z
" transform="scale(0.015625)"/>
       <path id="DejaVuSans-6b" d="M 581 4863 
L 1159 4863 
L 1159 1991 
L 2875 3500 
L 3609 3500 
L 1753 1863 
L 3688 0 
L 2938 0 
L 1159 1709 
L 1159 0 
L 581 0 
L 581 4863 
z
" transform="scale(0.015625)"/>
       <path id="DejaVuSans-34" d="M 2419 4116 
L 825 1625 
L 2419 1625 
L 2419 4116 
z
M 2253 4666 
L 3047 4666 
L 3047 1625 
L 3713 1625 
L 3713 1100 
L 3047 1100 
L 3047 0 
L 2419 0 
L 2419 1100 
L 313 1100 
L 313 1709 
L 2253 4666 
z
" transform="scale(0.015625)"/>
      </defs>
      <use xlink:href="#DejaVuSans-4c"/>
      <use xlink:href="#DejaVuSans-69" transform="translate(55.712891 0)"/>
      <use xlink:href="#DejaVuSans-6e" transform="translate(83.496094 0)"/>
      <use xlink:href="#DejaVuSans-6b" transform="translate(146.875 0)"/>
      <use xlink:href="#DejaVuSans-20" transform="translate(204.785156 0)"/>
      <use xlink:href="#DejaVuSans-28" transform="translate(236.572266 0)"/>
      <use xlink:href="#DejaVuSans-34" transform="translate(275.585938 0)"/>
      <use xlink:href="#DejaVuSans-2e" transform="translate(339.208984 0)"/>
      <use xlink:href="#DejaVuSans-35" transform="translate(370.996094 0)"/>
      <use xlink:href="#DejaVuSans-2d" transform="translate(434.619141 0)"/>
      <use xlink:href="#DejaVuSans-36" transform="translate(470.703125 0)"/>
      <use xlink:href="#DejaVuSans-2e" transform="translate(534.326172 0)"/>
      <use xlink:href="#DejaVuSans-35" transform="translate(566.113281 0)"/>
      <use xlink:href="#DejaVuSans-20" transform="translate(629.736328 0)"/>
      <use xlink:href="#DejaVuSans-70" transform="translate(661.523438 0)"/>
      <use xlink:href="#DejaVuSans-78" transform="translate(725 0)"/>
      <use xlink:href="#DejaVuSans-29" transform="translate(784.179688 0)"/>
     </g>
    </g>
    <g id="line2d_134">
     <path d="M 46.33125 604.342187 
L 56.33125 604.342187 
L 66.33125 604.342187 
" style="fill: none; stroke: #757575; stroke-width: 1.9; stroke-linecap: square"/>
    </g>
    <g id="text_6">
     <!-- Sub (3.0-4.5 px) -->
     <g transform="translate(74.33125 607.842187) scale(0.1 -0.1)">
      <defs>
       <path id="DejaVuSans-53" d="M 3425 4513 
L 3425 3897 
Q 3066 4069 2747 4153 
Q 2428 4238 2131 4238 
Q 1616 4238 1336 4038 
Q 1056 3838 1056 3469 
Q 1056 3159 1242 3001 
Q 1428 2844 1947 2747 
L 2328 2669 
Q 3034 2534 3370 2195 
Q 3706 1856 3706 1288 
Q 3706 609 3251 259 
Q 2797 -91 1919 -91 
Q 1588 -91 1214 -16 
Q 841 59 441 206 
L 441 856 
Q 825 641 1194 531 
Q 1563 422 1919 422 
Q 2459 422 2753 634 
Q 3047 847 3047 1241 
Q 3047 1584 2836 1778 
Q 2625 1972 2144 2069 
L 1759 2144 
Q 1053 2284 737 2584 
Q 422 2884 422 3419 
Q 422 4038 858 4394 
Q 1294 4750 2059 4750 
Q 2388 4750 2728 4690 
Q 3069 4631 3425 4513 
z
" transform="scale(0.015625)"/>
       <path id="DejaVuSans-33" d="M 2597 2516 
Q 3050 2419 3304 2112 
Q 3559 1806 3559 1356 
Q 3559 666 3084 287 
Q 2609 -91 1734 -91 
Q 1441 -91 1130 -33 
Q 819 25 488 141 
L 488 750 
Q 750 597 1062 519 
Q 1375 441 1716 441 
Q 2309 441 2620 675 
Q 2931 909 2931 1356 
Q 2931 1769 2642 2001 
Q 2353 2234 1838 2234 
L 1294 2234 
L 1294 2753 
L 1863 2753 
Q 2328 2753 2575 2939 
Q 2822 3125 2822 3475 
Q 2822 3834 2567 4026 
Q 2313 4219 1838 4219 
Q 1578 4219 1281 4162 
Q 984 4106 628 3988 
L 628 4550 
Q 988 4650 1302 4700 
Q 1616 4750 1894 4750 
Q 2613 4750 3031 4423 
Q 3450 4097 3450 3541 
Q 3450 3153 3228 2886 
Q 3006 2619 2597 2516 
z
" transform="scale(0.015625)"/>
       <path id="DejaVuSans-30" d="M 2034 4250 
Q 1547 4250 1301 3770 
Q 1056 3291 1056 2328 
Q 1056 1369 1301 889 
Q 1547 409 2034 409 
Q 2525 409 2770 889 
Q 3016 1369 3016 2328 
Q 3016 3291 2770 3770 
Q 2525 4250 2034 4250 
z
M 2034 4750 
Q 2819 4750 3233 4129 
Q 3647 3509 3647 2328 
Q 3647 1150 3233 529 
Q 2819 -91 2034 -91 
Q 1250 -91 836 529 
Q 422 1150 422 2328 
Q 422 3509 836 4129 
Q 1250 4750 2034 4750 
z
" transform="scale(0.015625)"/>
      </defs>
      <use xlink:href="#DejaVuSans-53"/>
      <use xlink:href="#DejaVuSans-75" transform="translate(63.476562 0)"/>
      <use xlink:href="#DejaVuSans-62" transform="translate(126.855469 0)"/>
      <use xlink:href="#DejaVuSans-20" transform="translate(190.332031 0)"/>
      <use xlink:href="#DejaVuSans-28" transform="translate(222.119141 0)"/>
      <use xlink:href="#DejaVuSans-33" transform="translate(261.132812 0)"/>
      <use xlink:href="#DejaVuSans-2e" transform="translate(324.755859 0)"/>
      <use xlink:href="#DejaVuSans-30" transform="translate(356.542969 0)"/>
      <use xlink:href="#DejaVuSans-2d" transform="translate(420.166016 0)"/>
      <use xlink:href="#DejaVuSans-34" transform="translate(456.25 0)"/>
      <use xlink:href="#DejaVuSans-2e" transform="translate(519.873047 0)"/>
      <use xlink:href="#DejaVuSans-35" transform="translate(551.660156 0)"/>
      <use xlink:href="#DejaVuSans-20" transform="translate(615.283203 0)"/>
      <use xlink:href="#DejaVuSans-70" transform="translate(647.070312 0)"/>
      <use xlink:href="#DejaVuSans-78" transform="translate(710.546875 0)"/>
      <use xlink:href="#DejaVuSans-29" transform="translate(769.726562 0)"/>
     </g>
    </g>
    <g id="line2d_135">
     <path d="M 46.33125 619.020312 
L 56.33125 619.020312 
L 66.33125 619.020312 
" style="fill: none; stroke: #b0b0b0; stroke-width: 1.1; stroke-linecap: square"/>
    </g>
    <g id="text_7">
     <!-- Mini (&lt;=3.0 px) -->
     <g transform="translate(74.33125 622.520312) scale(0.1 -0.1)">
      <defs>
       <path id="DejaVuSans-3c" d="M 4684 3150 
L 1459 2003 
L 4684 863 
L 4684 294 
L 678 1747 
L 678 2266 
L 4684 3719 
L 4684 3150 
z
" transform="scale(0.015625)"/>
       <path id="DejaVuSans-3d" d="M 678 2906 
L 4684 2906 
L 4684 2381 
L 678 2381 
L 678 2906 
z
M 678 1631 
L 4684 1631 
L 4684 1100 
L 678 1100 
L 678 1631 
z
" transform="scale(0.015625)"/>
      </defs>
      <use xlink:href="#DejaVuSans-4d"/>
      <use xlink:href="#DejaVuSans-69" transform="translate(86.279297 0)"/>
      <use xlink:href="#DejaVuSans-6e" transform="translate(114.0625 0)"/>
      <use xlink:href="#DejaVuSans-69" transform="translate(177.441406 0)"/>
      <use xlink:href="#DejaVuSans-20" transform="translate(205.224609 0)"/>
      <use xlink:href="#DejaVuSans-28" transform="translate(237.011719 0)"/>
      <use xlink:href="#DejaVuSans-3c" transform="translate(276.025391 0)"/>
      <use xlink:href="#DejaVuSans-3d" transform="translate(359.814453 0)"/>
      <use xlink:href="#DejaVuSans-33" transform="translate(443.603516 0)"/>
      <use xlink:href="#DejaVuSans-2e" transform="translate(507.226562 0)"/>
      <use xlink:href="#DejaVuSans-30" transform="translate(539.013672 0)"/>
      <use xlink:href="#DejaVuSans-20" transform="translate(602.636719 0)"/>
      <use xlink:href="#DejaVuSans-70" transform="translate(634.423828 0)"/>
      <use xlink:href="#DejaVuSans-78" transform="translate(697.900391 0)"/>
      <use xlink:href="#DejaVuSans-29" transform="translate(757.080078 0)"/>
     </g>
    </g>
   </g>
  </g>
 </g>
 <defs>
  <clipPath id="p9cb1b41b40">
   <rect x="7.2" y="7.2" width="913.5" height="626.4"/>
  </clipPath>
 </defs>
</svg>
