<?xml version="1.0" encoding="UTF-8" standalone="no"?>
<!DOCTYPE svg PUBLIC "-//W3C//DTD SVG 1.1//EN"
 "http://www.w3.org/Graphics/SVG/1.1/DTD/svg11.dtd">
<!-- Generated by graphviz version 2.43.0 (0)
 -->
<!-- Title: Flowchart Pages: 1 -->
<svg width="1192pt" height="1232pt"
 viewBox="10.80 10.80 1181.60 1221.60" xmlns="http://www.w3.org/2000/svg" xmlns:xlink="http://www.w3.org/1999/xlink">
<g id="graph0" class="graph" transform="scale(1 1) rotate(0) translate(25.2 1207.2)">
<title>Flowchart</title>
<polygon fill="white" stroke="transparent" points="-14.4,14.4 -14.4,-1196.4 1156.4,-1196.4 1156.4,14.4 -14.4,14.4"/>
<text text-anchor="middle" x="571" y="-1163.6" font-family="Helvetica,sans-Serif" font-size="18.00">Dynamic Path Planning Based on Improved Ant Colony Algorithm (PSO–ACO Hybrid, Road Condition Factor R)</text>
<!-- start -->
<g id="node1" class="node">
<title>start</title>
<path fill="#1f3b73" stroke="#1f3b73" stroke-width="2" d="M579.5,-1154C579.5,-1154 537.5,-1154 537.5,-1154 531.5,-1154 525.5,-1148 525.5,-1142 525.5,-1142 525.5,-1130 525.5,-1130 525.5,-1124 531.5,-1118 537.5,-1118 537.5,-1118 579.5,-1118 579.5,-1118 585.5,-1118 591.5,-1124 591.5,-1130 591.5,-1130 591.5,-1142 591.5,-1142 591.5,-1148 585.5,-1154 579.5,-1154"/>
<text text-anchor="middle" x="558.5" y="-1132.2" font-family="Helvetica,sans-Serif" font-size="16.00" fill="white">START</text>
</g>
<!-- init_map -->
<g id="node2" class="node">
<title>init_map</title>
<path fill="#f7f9fc" stroke="#1f3b73" stroke-width="2" d="M644,-1086C644,-1086 473,-1086 473,-1086 467,-1086 461,-1080 461,-1074 461,-1074 461,-1060 461,-1060 461,-1054 467,-1048 473,-1048 473,-1048 644,-1048 644,-1048 650,-1048 656,-1054 656,-1060 656,-1060 656,-1074 656,-1074 656,-1080 650,-1086 644,-1086"/>
<text text-anchor="middle" x="558.5" y="-1070.8" font-family="Helvetica,sans-Serif" font-size="14.00">Initialize map data</text>
<text text-anchor="middle" x="558.5" y="-1055.8" font-family="Helvetica,sans-Serif" font-size="14.00">(n intersections, m roads)</text>
</g>
<!-- start&#45;&gt;init_map -->
<g id="edge1" class="edge">
<title>start&#45;&gt;init_map</title>
<path fill="none" stroke="#1f3b73" stroke-width="1.7" d="M558.5,-1117.75C558.5,-1110.53 558.5,-1102 558.5,-1094.05"/>
<polygon fill="#1f3b73" stroke="#1f3b73" stroke-width="1.7" points="561.13,-1093.87 558.5,-1086.37 555.88,-1093.87 561.13,-1093.87"/>
</g>
<!-- calc_r0 -->
<g id="node3" class="node">
<title>calc_r0</title>
<path fill="#f7f9fc" stroke="#1f3b73" stroke-width="2" d="M713,-1016C713,-1016 404,-1016 404,-1016 398,-1016 392,-1010 392,-1004 392,-1004 392,-992 392,-992 392,-986 398,-980 404,-980 404,-980 713,-980 713,-980 719,-980 725,-986 725,-992 725,-992 725,-1004 725,-1004 725,-1010 719,-1016 713,-1016"/>
<text text-anchor="start" x="400" y="-1001.8" font-family="Helvetica,sans-Serif" font-size="14.00"> &#160;&#160;&#160;</text>
<text text-anchor="start" x="419" y="-1001.8" font-family="Helvetica,sans-Serif" font-weight="bold" font-size="14.00">Compute initial road condition factors</text>
<text text-anchor="start" x="472.5" y="-987.8" font-family="Helvetica,sans-Serif" font-size="14.00"> &#160;&#160;&#160;R</text>
<text text-anchor="start" x="500.5" y="-987.8" font-family="Helvetica,sans-Serif" baseline-shift="sub" font-size="14.00">i</text>
<text text-anchor="start" x="504.5" y="-987.8" font-family="Helvetica,sans-Serif" font-size="14.00">(0) = d</text>
<text text-anchor="start" x="554.5" y="-987.8" font-family="Helvetica,sans-Serif" baseline-shift="sub" font-size="14.00">i</text>
<text text-anchor="start" x="558.5" y="-987.8" font-family="Helvetica,sans-Serif" font-size="14.00"> × (1 + C</text>
<text text-anchor="start" x="625.5" y="-987.8" font-family="Helvetica,sans-Serif" baseline-shift="sub" font-size="14.00">i</text>
<text text-anchor="start" x="629.5" y="-987.8" font-family="Helvetica,sans-Serif" font-size="14.00">) &#160;</text>
</g>
<!-- init_map&#45;&gt;calc_r0 -->
<g id="edge2" class="edge">
<title>init_map&#45;&gt;calc_r0</title>
<path fill="none" stroke="#1f3b73" stroke-width="1.7" d="M558.5,-1047.69C558.5,-1040.37 558.5,-1031.82 558.5,-1023.94"/>
<polygon fill="#1f3b73" stroke="#1f3b73" stroke-width="1.7" points="561.13,-1023.86 558.5,-1016.36 555.88,-1023.86 561.13,-1023.86"/>
</g>
<!-- set_io -->
<g id="node4" class="node">
<title>set_io</title>
<polygon fill="#eef2f7" stroke="#1f3b73" stroke-width="2" points="790.97,-948 421.16,-948 326.03,-848 695.84,-848 790.97,-948"/>
<text text-anchor="start" x="528" y="-908.8" font-family="Helvetica,sans-Serif" font-size="14.00"> &#160;&#160;&#160;</text>
<text text-anchor="start" x="547" y="-908.8" font-family="Helvetica,sans-Serif" font-weight="bold" font-size="14.00">Input</text>
<text text-anchor="start" x="480.5" y="-894.8" font-family="Helvetica,sans-Serif" font-size="14.00"> &#160;&#160;&#160;Set start/end points</text>
<text text-anchor="start" x="454.5" y="-880.8" font-family="Helvetica,sans-Serif" font-size="14.00"> &#160;&#160;&#160;Initialize R</text>
<text text-anchor="start" x="545.5" y="-880.8" font-family="Helvetica,sans-Serif" baseline-shift="sub" font-size="14.00">max</text>
<text text-anchor="start" x="571.5" y="-880.8" font-family="Helvetica,sans-Serif" font-size="14.00"> and ΔR</text>
<text text-anchor="start" x="626.5" y="-880.8" font-family="Helvetica,sans-Serif" baseline-shift="sub" font-size="14.00">max</text>
<text text-anchor="start" x="652.5" y="-880.8" font-family="Helvetica,sans-Serif" font-size="14.00"> &#160;</text>
</g>
<!-- calc_r0&#45;&gt;set_io -->
<g id="edge3" class="edge">
<title>calc_r0&#45;&gt;set_io</title>
<path fill="none" stroke="#1f3b73" stroke-width="1.7" d="M558.5,-979.93C558.5,-973.06 558.5,-964.7 558.5,-956"/>
<polygon fill="#1f3b73" stroke="#1f3b73" stroke-width="1.7" points="561.13,-955.8 558.5,-948.3 555.88,-955.8 561.13,-955.8"/>
</g>
<!-- pso -->
<g id="node5" class="node">
<title>pso</title>
<path fill="#eaf0ff" stroke="#1f3b73" stroke-width="2" d="M721,-816C721,-816 396,-816 396,-816 390,-816 384,-810 384,-804 384,-804 384,-778 384,-778 384,-772 390,-766 396,-766 396,-766 721,-766 721,-766 727,-766 733,-772 733,-778 733,-778 733,-804 733,-804 733,-810 727,-816 721,-816"/>
<text text-anchor="start" x="392" y="-801.8" font-family="Helvetica,sans-Serif" font-size="14.00"> &#160;&#160;&#160;</text>
<text text-anchor="start" x="411" y="-801.8" font-family="Helvetica,sans-Serif" font-weight="bold" font-size="14.00">PHASE 1 — PSO optimization (one&#45;time)</text>
<text text-anchor="start" x="404.5" y="-787.8" font-family="Helvetica,sans-Serif" font-size="14.00"> &#160;&#160;&#160;Use R(0) in PSO fitness (replace distance)</text>
<text text-anchor="start" x="441.5" y="-773.8" font-family="Helvetica,sans-Serif" font-size="14.00"> &#160;&#160;&#160;Tune ACO parameters: α, β, ρ &#160;</text>
</g>
<!-- set_io&#45;&gt;pso -->
<g id="edge4" class="edge">
<title>set_io&#45;&gt;pso</title>
<path fill="none" stroke="#1f3b73" stroke-width="1.7" d="M558.5,-847.88C558.5,-839.81 558.5,-831.63 558.5,-824.11"/>
<polygon fill="#1f3b73" stroke="#1f3b73" stroke-width="1.7" points="561.13,-823.74 558.5,-816.24 555.88,-823.74 561.13,-823.74"/>
</g>
<!-- aco_init -->
<g id="node6" class="node">
<title>aco_init</title>
<path fill="#eaf0ff" stroke="#1f3b73" stroke-width="2" d="M699,-734C699,-734 418,-734 418,-734 412,-734 406,-728 406,-722 406,-722 406,-682 406,-682 406,-676 412,-670 418,-670 418,-670 699,-670 699,-670 705,-670 711,-676 711,-682 711,-682 711,-722 711,-722 711,-728 705,-734 699,-734"/>
<text text-anchor="start" x="434" y="-719.8" font-family="Helvetica,sans-Serif" font-size="14.00"> &#160;&#160;&#160;</text>
<text text-anchor="start" x="453" y="-719.8" font-family="Helvetica,sans-Serif" font-weight="bold" font-size="14.00">PHASE 2 — Initial pathfinding</text>
<text text-anchor="start" x="414" y="-705.8" font-family="Helvetica,sans-Serif" font-size="14.00"> &#160;&#160;&#160;Run improved ACO with tuned (α, β, ρ)</text>
<text text-anchor="start" x="473.5" y="-691.8" font-family="Helvetica,sans-Serif" font-size="14.00"> &#160;&#160;&#160;Use R</text>
<text text-anchor="start" x="532.5" y="-691.8" font-family="Helvetica,sans-Serif" baseline-shift="sub" font-size="14.00">i</text>
<text text-anchor="start" x="536.5" y="-691.8" font-family="Helvetica,sans-Serif" font-size="14.00">(t) to replace d</text>
<text text-anchor="start" x="639.5" y="-691.8" font-family="Helvetica,sans-Serif" baseline-shift="sub" font-size="14.00">i</text>
<text text-anchor="start" x="455" y="-677.8" font-family="Helvetica,sans-Serif" font-size="14.00"> &#160;&#160;&#160;Generate initial </text>
<text text-anchor="start" x="584" y="-677.8" font-family="Helvetica,sans-Serif" font-weight="bold" font-size="14.00">besttour</text>
<text text-anchor="start" x="652" y="-677.8" font-family="Helvetica,sans-Serif" font-size="14.00"> &#160;</text>
</g>
<!-- pso&#45;&gt;aco_init -->
<g id="edge5" class="edge">
<title>pso&#45;&gt;aco_init</title>
<path fill="none" stroke="#1f3b73" stroke-width="1.7" d="M558.5,-765.77C558.5,-758.37 558.5,-750.05 558.5,-741.94"/>
<polygon fill="#1f3b73" stroke="#1f3b73" stroke-width="1.7" points="561.13,-741.77 558.5,-734.27 555.88,-741.77 561.13,-741.77"/>
</g>
<!-- note_pso -->
<g id="node16" class="node">
<title>note_pso</title>
<polygon fill="#fafbff" stroke="#7a8699" stroke-width="1.3" points="1136,-724 729,-724 729,-680 1142,-680 1142,-718 1136,-724"/>
<polyline fill="none" stroke="#7a8699" stroke-width="1.3" points="1136,-724 1136,-718 "/>
<polyline fill="none" stroke="#7a8699" stroke-width="1.3" points="1142,-718 1136,-718 "/>
<text text-anchor="start" x="737" y="-711.4" font-family="Helvetica,sans-Serif" font-size="12.00"> &#160;&#160;&#160;&#160;&#160;&#160;&#160;&#160;&#160;&#160;&#160;&#160;&#160;</text>
<text text-anchor="start" x="790" y="-711.4" font-family="Helvetica,sans-Serif" font-weight="bold" font-size="12.00">Hybrid architecture</text>
<text text-anchor="start" x="737" y="-699.4" font-family="Helvetica,sans-Serif" font-size="12.00"> &#160;&#160;&#160;&#160;&#160;&#160;&#160;&#160;&#160;&#160;&#160;&#160;&#160;PSO runs once to tune (α, β, ρ).</text>
<text text-anchor="start" x="737" y="-687.4" font-family="Helvetica,sans-Serif" font-size="12.00"> &#160;&#160;&#160;&#160;&#160;&#160;&#160;&#160;&#160;&#160;&#160;&#160;&#160;ACO performs pathfinding &amp; dynamic re&#45;planning. &#160;&#160;&#160;&#160;&#160;&#160;&#160;&#160;&#160;&#160;&#160;</text>
</g>
<!-- pso&#45;&gt;note_pso -->
<g id="edge18" class="edge">
<title>pso&#45;&gt;note_pso</title>
<path fill="none" stroke="#7a8699" stroke-width="1.7" stroke-dasharray="5,2" d="M662.51,-766C719.51,-752.84 789.49,-736.69 844.33,-724.04"/>
</g>
<!-- monitor -->
<g id="node7" class="node">
<title>monitor</title>
<path fill="#f7f9fc" stroke="#1f3b73" stroke-width="2" d="M701.5,-638C701.5,-638 415.5,-638 415.5,-638 409.5,-638 403.5,-632 403.5,-626 403.5,-626 403.5,-614 403.5,-614 403.5,-608 409.5,-602 415.5,-602 415.5,-602 701.5,-602 701.5,-602 707.5,-602 713.5,-608 713.5,-614 713.5,-614 713.5,-626 713.5,-626 713.5,-632 707.5,-638 701.5,-638"/>
<text text-anchor="start" x="433" y="-623.8" font-family="Helvetica,sans-Serif" font-size="14.00"> &#160;&#160;&#160;</text>
<text text-anchor="start" x="452" y="-623.8" font-family="Helvetica,sans-Serif" font-weight="bold" font-size="14.00">Dynamic monitoring (t → t+1)</text>
<text text-anchor="start" x="411.5" y="-609.8" font-family="Helvetica,sans-Serif" font-size="14.00"> &#160;&#160;&#160;Update R</text>
<text text-anchor="start" x="494.5" y="-609.8" font-family="Helvetica,sans-Serif" baseline-shift="sub" font-size="14.00">i</text>
<text text-anchor="start" x="498.5" y="-609.8" font-family="Helvetica,sans-Serif" font-size="14.00">(t) and ΔR</text>
<text text-anchor="start" x="569.5" y="-609.8" font-family="Helvetica,sans-Serif" baseline-shift="sub" font-size="14.00">i</text>
<text text-anchor="start" x="573.5" y="-609.8" font-family="Helvetica,sans-Serif" font-size="14.00"> = R</text>
<text text-anchor="start" x="604.5" y="-609.8" font-family="Helvetica,sans-Serif" baseline-shift="sub" font-size="14.00">i</text>
<text text-anchor="start" x="608.5" y="-609.8" font-family="Helvetica,sans-Serif" font-size="14.00">(t+1) − R</text>
<text text-anchor="start" x="676.5" y="-609.8" font-family="Helvetica,sans-Serif" baseline-shift="sub" font-size="14.00">i</text>
<text text-anchor="start" x="680.5" y="-609.8" font-family="Helvetica,sans-Serif" font-size="14.00">(t) &#160;</text>
</g>
<!-- aco_init&#45;&gt;monitor -->
<g id="edge6" class="edge">
<title>aco_init&#45;&gt;monitor</title>
<path fill="none" stroke="#1f3b73" stroke-width="1.7" d="M558.5,-669.84C558.5,-661.98 558.5,-653.64 558.5,-646.12"/>
<polygon fill="#1f3b73" stroke="#1f3b73" stroke-width="1.7" points="561.13,-645.84 558.5,-638.34 555.88,-645.84 561.13,-645.84"/>
</g>
<!-- trigger -->
<g id="node8" class="node">
<title>trigger</title>
<polygon fill="#eef2f7" stroke="#1f3b73" stroke-width="2" points="408.5,-570 135.5,-534 408.5,-498 681.5,-534 408.5,-570"/>
<text text-anchor="start" x="328" y="-537.8" font-family="Helvetica,sans-Serif" font-size="14.00"> &#160;&#160;&#160;</text>
<text text-anchor="start" x="347" y="-537.8" font-family="Helvetica,sans-Serif" font-weight="bold" font-size="14.00">Trigger condition?</text>
<text text-anchor="start" x="280" y="-523.8" font-family="Helvetica,sans-Serif" font-size="14.00"> &#160;&#160;&#160;(ΔR</text>
<text text-anchor="start" x="323" y="-523.8" font-family="Helvetica,sans-Serif" baseline-shift="sub" font-size="14.00">i</text>
<text text-anchor="start" x="327" y="-523.8" font-family="Helvetica,sans-Serif" font-size="14.00"> &gt; ΔR</text>
<text text-anchor="start" x="368" y="-523.8" font-family="Helvetica,sans-Serif" baseline-shift="sub" font-size="14.00">max</text>
<text text-anchor="start" x="394" y="-523.8" font-family="Helvetica,sans-Serif" font-size="14.00">) OR (R</text>
<text text-anchor="start" x="445" y="-523.8" font-family="Helvetica,sans-Serif" baseline-shift="sub" font-size="14.00">i</text>
<text text-anchor="start" x="449" y="-523.8" font-family="Helvetica,sans-Serif" font-size="14.00">(t) &gt; R</text>
<text text-anchor="start" x="496" y="-523.8" font-family="Helvetica,sans-Serif" baseline-shift="sub" font-size="14.00">max</text>
<text text-anchor="start" x="522" y="-523.8" font-family="Helvetica,sans-Serif" font-size="14.00">) &#160;</text>
</g>
<!-- monitor&#45;&gt;trigger -->
<g id="edge7" class="edge">
<title>monitor&#45;&gt;trigger</title>
<path fill="none" stroke="#1f3b73" stroke-width="1.7" d="M527.78,-601.8C509.99,-591.84 487.03,-578.98 466,-567.2"/>
<polygon fill="#1f3b73" stroke="#1f3b73" stroke-width="1.7" points="467.08,-564.8 459.26,-563.42 464.52,-569.38 467.08,-564.8"/>
</g>
<!-- keep -->
<g id="node9" class="node">
<title>keep</title>
<path fill="#f7f9fc" stroke="#1f3b73" stroke-width="2" d="M203,-466C203,-466 12,-466 12,-466 6,-466 0,-460 0,-454 0,-454 0,-440 0,-440 0,-434 6,-428 12,-428 12,-428 203,-428 203,-428 209,-428 215,-434 215,-440 215,-440 215,-454 215,-454 215,-460 209,-466 203,-466"/>
<text text-anchor="middle" x="107.5" y="-450.8" font-family="Helvetica,sans-Serif" font-size="14.00">NO:</text>
<text text-anchor="middle" x="107.5" y="-435.8" font-family="Helvetica,sans-Serif" font-size="14.00">Proceed on existing besttour</text>
</g>
<!-- trigger&#45;&gt;keep -->
<g id="edge8" class="edge">
<title>trigger&#45;&gt;keep</title>
<path fill="none" stroke="#1f3b73" stroke-width="1.7" d="M323.85,-509.1C278.16,-496.19 222.37,-480.44 178.89,-468.16"/>
<polygon fill="#1f3b73" stroke="#1f3b73" stroke-width="1.7" points="179.41,-465.58 171.48,-466.07 177.98,-470.63 179.41,-465.58"/>
<text text-anchor="middle" x="242.87" y="-479.03" font-family="Helvetica,sans-Serif" font-size="12.00">No</text>
</g>
<!-- newtour -->
<g id="node10" class="node">
<title>newtour</title>
<path fill="#f7f9fc" stroke="#1f3b73" stroke-width="2" d="M626,-465C626,-465 245,-465 245,-465 239,-465 233,-459 233,-453 233,-453 233,-441 233,-441 233,-435 239,-429 245,-429 245,-429 626,-429 626,-429 632,-429 638,-435 638,-441 638,-441 638,-453 638,-453 638,-459 632,-465 626,-465"/>
<text text-anchor="start" x="241" y="-450.8" font-family="Helvetica,sans-Serif" font-size="14.00"> &#160;&#160;&#160;</text>
<text text-anchor="start" x="260" y="-450.8" font-family="Helvetica,sans-Serif" font-weight="bold" font-size="14.00">YES:</text>
<text text-anchor="start" x="296" y="-450.8" font-family="Helvetica,sans-Serif" font-size="14.00"> Re&#45;plan from current node using improved ACO</text>
<text text-anchor="start" x="318" y="-436.8" font-family="Helvetica,sans-Serif" font-size="14.00"> &#160;&#160;&#160;Compute candidate </text>
<text text-anchor="start" x="477" y="-436.8" font-family="Helvetica,sans-Serif" font-weight="bold" font-size="14.00">newtour</text>
<text text-anchor="start" x="543" y="-436.8" font-family="Helvetica,sans-Serif" font-size="14.00"> &#160;</text>
</g>
<!-- trigger&#45;&gt;newtour -->
<g id="edge9" class="edge">
<title>trigger&#45;&gt;newtour</title>
<path fill="none" stroke="#0b6b3a" stroke-width="1.7" d="M419.17,-499.41C422.02,-490.45 425.03,-480.95 427.69,-472.58"/>
<polygon fill="#0b6b3a" stroke="#0b6b3a" stroke-width="1.7" points="430.25,-473.2 430.02,-465.26 425.25,-471.61 430.25,-473.2"/>
<text text-anchor="middle" x="413.43" y="-489.39" font-family="Helvetica,sans-Serif" font-size="12.00" fill="#0b6b3a">Yes</text>
</g>
<!-- traverse -->
<g id="node13" class="node">
<title>traverse</title>
<path fill="#f7f9fc" stroke="#1f3b73" stroke-width="2" d="M649.5,-182C649.5,-182 461.5,-182 461.5,-182 455.5,-182 449.5,-176 449.5,-170 449.5,-170 449.5,-156 449.5,-156 449.5,-150 455.5,-144 461.5,-144 461.5,-144 649.5,-144 649.5,-144 655.5,-144 661.5,-150 661.5,-156 661.5,-156 661.5,-170 661.5,-170 661.5,-176 655.5,-182 649.5,-182"/>
<text text-anchor="middle" x="555.5" y="-166.8" font-family="Helvetica,sans-Serif" font-size="14.00">Traverse next road segment</text>
<text text-anchor="middle" x="555.5" y="-151.8" font-family="Helvetica,sans-Serif" font-size="14.00">along selected tour</text>
</g>
<!-- keep&#45;&gt;traverse -->
<g id="edge10" class="edge">
<title>keep&#45;&gt;traverse</title>
<path fill="none" stroke="#1f3b73" stroke-width="1.7" d="M113.65,-427.91C127.22,-388.01 158.5,-296 158.5,-296 158.5,-296 313.5,-214 313.5,-214 313.5,-214 392.92,-197.59 460.77,-183.57"/>
<polygon fill="#1f3b73" stroke="#1f3b73" stroke-width="1.7" points="461.32,-186.14 468.13,-182.05 460.26,-181 461.32,-186.14"/>
</g>
<!-- compare -->
<g id="node11" class="node">
<title>compare</title>
<polygon fill="#eef2f7" stroke="#1f3b73" stroke-width="2" points="424.5,-396 167.5,-346 424.5,-296 681.5,-346 424.5,-396"/>
<text text-anchor="start" x="342" y="-356.8" font-family="Helvetica,sans-Serif" font-size="14.00"> &#160;&#160;&#160;</text>
<text text-anchor="start" x="361" y="-356.8" font-family="Helvetica,sans-Serif" font-weight="bold" font-size="14.00">Is newtour better?</text>
<text text-anchor="start" x="324" y="-342.8" font-family="Helvetica,sans-Serif" font-size="14.00"> &#160;&#160;&#160;newtour &lt; (besttour − a</text>
<text text-anchor="start" x="514" y="-342.8" font-family="Helvetica,sans-Serif" baseline-shift="sub" font-size="14.00">r</text>
<text text-anchor="start" x="519" y="-342.8" font-family="Helvetica,sans-Serif" font-size="14.00">)</text>
<text text-anchor="start" x="304" y="-328.8" font-family="Helvetica,sans-Serif" font-size="14.00"> &#160;&#160;&#160;(a</text>
<text text-anchor="start" x="336" y="-328.8" font-family="Helvetica,sans-Serif" baseline-shift="sub" font-size="14.00">r</text>
<text text-anchor="start" x="341" y="-328.8" font-family="Helvetica,sans-Serif" font-size="14.00">: traversed path cost so far) &#160;</text>
</g>
<!-- newtour&#45;&gt;compare -->
<g id="edge11" class="edge">
<title>newtour&#45;&gt;compare</title>
<path fill="none" stroke="#1f3b73" stroke-width="1.7" d="M433.58,-428.76C432.76,-421.32 431.74,-412.18 430.69,-402.72"/>
<polygon fill="#1f3b73" stroke="#1f3b73" stroke-width="1.7" points="433.28,-402.26 429.84,-395.1 428.06,-402.84 433.28,-402.26"/>
</g>
<!-- update -->
<g id="node12" class="node">
<title>update</title>
<path fill="#e8fff1" stroke="#0b6b3a" stroke-width="2" d="M515,-264C515,-264 334,-264 334,-264 328,-264 322,-258 322,-252 322,-252 322,-226 322,-226 322,-220 328,-214 334,-214 334,-214 515,-214 515,-214 521,-214 527,-220 527,-226 527,-226 527,-252 527,-252 527,-258 521,-264 515,-264"/>
<text text-anchor="start" x="369.5" y="-249.8" font-family="Helvetica,sans-Serif" font-size="14.00" fill="#0b6b3a"> &#160;&#160;&#160;</text>
<text text-anchor="start" x="388.5" y="-249.8" font-family="Helvetica,sans-Serif" font-weight="bold" font-size="14.00" fill="#0b6b3a">YES update</text>
<text text-anchor="start" x="330" y="-235.8" font-family="Helvetica,sans-Serif" font-size="14.00" fill="#0b6b3a"> &#160;&#160;&#160;besttour ← newtour + a</text>
<text text-anchor="start" x="514" y="-235.8" font-family="Helvetica,sans-Serif" baseline-shift="sub" font-size="14.00" fill="#0b6b3a">r</text>
<text text-anchor="start" x="361" y="-221.8" font-family="Helvetica,sans-Serif" font-size="14.00" fill="#0b6b3a"> &#160;&#160;&#160;a</text>
<text text-anchor="start" x="388" y="-221.8" font-family="Helvetica,sans-Serif" baseline-shift="sub" font-size="14.00" fill="#0b6b3a">r</text>
<text text-anchor="start" x="393" y="-221.8" font-family="Helvetica,sans-Serif" font-size="14.00" fill="#0b6b3a"> ← a</text>
<text text-anchor="start" x="423" y="-221.8" font-family="Helvetica,sans-Serif" baseline-shift="sub" font-size="14.00" fill="#0b6b3a">r</text>
<text text-anchor="start" x="428" y="-221.8" font-family="Helvetica,sans-Serif" font-size="14.00" fill="#0b6b3a"> + R</text>
<text text-anchor="start" x="459" y="-221.8" font-family="Helvetica,sans-Serif" baseline-shift="sub" font-size="14.00" fill="#0b6b3a">i</text>
<text text-anchor="start" x="463" y="-221.8" font-family="Helvetica,sans-Serif" font-size="14.00" fill="#0b6b3a">(t) &#160;</text>
</g>
<!-- compare&#45;&gt;update -->
<g id="edge12" class="edge">
<title>compare&#45;&gt;update</title>
<path fill="none" stroke="#0b6b3a" stroke-width="1.7" d="M424.5,-295.88C424.5,-287.81 424.5,-279.63 424.5,-272.11"/>
<polygon fill="#0b6b3a" stroke="#0b6b3a" stroke-width="1.7" points="427.13,-271.74 424.5,-264.24 421.88,-271.74 427.13,-271.74"/>
<text text-anchor="middle" x="414.5" y="-287.39" font-family="Helvetica,sans-Serif" font-size="12.00" fill="#0b6b3a">Yes</text>
</g>
<!-- compare&#45;&gt;traverse -->
<g id="edge13" class="edge">
<title>compare&#45;&gt;traverse</title>
<path fill="none" stroke="#1f3b73" stroke-width="1.7" d="M478.2,-306.16C506.95,-285.37 536.5,-264 536.5,-264 536.5,-264 544.95,-219.52 550.58,-189.89"/>
<polygon fill="#1f3b73" stroke="#1f3b73" stroke-width="1.7" points="553.19,-190.2 552.02,-182.34 548.04,-189.22 553.19,-190.2"/>
<text text-anchor="middle" x="545.33" y="-265.68" font-family="Helvetica,sans-Serif" font-size="12.00">No</text>
</g>
<!-- update&#45;&gt;traverse -->
<g id="edge14" class="edge">
<title>update&#45;&gt;traverse</title>
<path fill="none" stroke="#1f3b73" stroke-width="1.7" d="M467.03,-213.97C483.11,-204.89 501.31,-194.61 517,-185.75"/>
<polygon fill="#1f3b73" stroke="#1f3b73" stroke-width="1.7" points="518.32,-188.02 523.56,-182.04 515.74,-183.45 518.32,-188.02"/>
</g>
<!-- dest -->
<g id="node14" class="node">
<title>dest</title>
<polygon fill="#eef2f7" stroke="#1f3b73" stroke-width="2" points="632.5,-112 495.59,-94 632.5,-76 769.41,-94 632.5,-112"/>
<text text-anchor="middle" x="632.5" y="-90.3" font-family="Helvetica,sans-Serif" font-size="14.00">Reached endpoint?</text>
</g>
<!-- traverse&#45;&gt;dest -->
<g id="edge15" class="edge">
<title>traverse&#45;&gt;dest</title>
<path fill="none" stroke="#1f3b73" stroke-width="1.7" d="M576.54,-143.69C586.67,-134.88 598.83,-124.29 609.23,-115.24"/>
<polygon fill="#1f3b73" stroke="#1f3b73" stroke-width="1.7" points="611.19,-117.02 615.12,-110.12 607.74,-113.06 611.19,-117.02"/>
</g>
<!-- dest&#45;&gt;monitor -->
<g id="edge17" class="edge">
<title>dest&#45;&gt;monitor</title>
<path fill="none" stroke="#1f3b73" stroke-width="1.7" d="M644.52,-110.5C655.66,-124.86 670.5,-144 670.5,-144 670.5,-144 709.5,-238 709.5,-238 709.5,-448 709.5,-448 709.5,-448 709.5,-448 690.5,-570 690.5,-570 690.5,-570 648.24,-585.69 611.55,-599.31"/>
<polygon fill="#1f3b73" stroke="#1f3b73" stroke-width="1.7" points="610.41,-596.93 604.3,-602 612.24,-601.85 610.41,-596.93"/>
<text text-anchor="middle" x="701" y="-378.16" font-family="Helvetica,sans-Serif" font-size="12.00">No</text>
</g>
<!-- end -->
<g id="node15" class="node">
<title>end</title>
<path fill="#1f3b73" stroke="#1f3b73" stroke-width="2" d="M776,-44C776,-44 489,-44 489,-44 483,-44 477,-38 477,-32 477,-32 477,-12 477,-12 477,-6 483,0 489,0 489,0 776,0 776,0 782,0 788,-6 788,-12 788,-12 788,-32 788,-32 788,-38 782,-44 776,-44"/>
<text text-anchor="middle" x="632.5" y="-27.2" font-family="Helvetica,sans-Serif" font-size="16.00" fill="white">END</text>
<text text-anchor="middle" x="632.5" y="-9.2" font-family="Helvetica,sans-Serif" font-size="16.00" fill="white">Output final traveled path (besttour)</text>
</g>
<!-- dest&#45;&gt;end -->
<g id="edge16" class="edge">
<title>dest&#45;&gt;end</title>
<path fill="none" stroke="#0b6b3a" stroke-width="1.7" d="M632.5,-75.7C632.5,-68.46 632.5,-59.84 632.5,-51.7"/>
<polygon fill="#0b6b3a" stroke="#0b6b3a" stroke-width="1.7" points="635.13,-51.6 632.5,-44.1 629.88,-51.6 635.13,-51.6"/>
<text text-anchor="middle" x="622.5" y="-67.1" font-family="Helvetica,sans-Serif" font-size="12.00" fill="#0b6b3a">Yes</text>
</g>
</g>
</svg>
